<?xml version="1.0" encoding="UTF-8"?>
<svg xmlns="http://www.w3.org/2000/svg" version="1.1" viewBox="0 0 1080 1080">
  <!-- Generator: Adobe Illustrator 30.3.0, SVG Export Plug-In . SVG Version: 2.1.3 Build 182)  -->
  <defs>
    <style>
      .st0 {
        fill: #fad743;
      }

      .st1 {
        fill: #959594;
      }

      .st2 {
        fill: #8b8b8a;
      }

      .st3 {
        fill: #f8ba1b;
      }

      .st4 {
        fill: #fefef7;
      }

      .st5 {
        fill: #f2ecd5;
      }

      .st5, .st6, .st7, .st8, .st9 {
        display: none;
      }

      .st10 {
        fill: #030303;
      }

      .st11 {
        fill: #8a8a89;
      }

      .st12, .st13, .st14, .st15 {
        stroke: #000;
        stroke-miterlimit: 10;
      }

      .st12, .st16 {
        fill: #fffffd;
      }

      .st17 {
        fill: #f8da49;
      }

      .st18 {
        fill: #faeda4;
      }

      .st19 {
        fill: #4d4d4d;
      }

      .st6 {
        fill: #fafaee;
      }

      .st20 {
        fill: #f8d945;
      }

      .st21 {
        fill: #c6c6c6;
      }

      .st22 {
        fill: #c2c1c0;
      }

      .st7 {
        fill: #040403;
      }

      .st23 {
        fill: #f9c31d;
      }

      .st24 {
        fill: #4e4e4e;
      }

      .st25 {
        fill: #fcfdec;
      }

      .st26 {
        fill: #ece1cd;
      }

      .st13 {
        fill: #fff;
        stroke-width: 2px;
      }

      .st27 {
        fill: #f39322;
      }

      .st28 {
        fill: #cecccb;
      }

      .st14 {
        fill: #ffebc2;
      }

      .st29 {
        fill: #825712;
      }

      .st8 {
        fill: #f8f4e0;
      }

      .st30 {
        fill: #b2a07f;
      }

      .st31 {
        fill: #cbcbcb;
      }

      .st32 {
        fill: #c8c7c7;
      }

      .st33 {
        fill: #fbb121;
      }

      .st34 {
        fill: #fefef2;
      }

      .st35 {
        fill: #ded5bb;
      }
    </style>
  </defs>
  <g id="_레이어_6" data-name="레이어_6" class="st9">
    <path d="M162.11,893.76c61.51,26.69,159.59,37.29,296.06,5.59,7.82-1.82,28.52-7.94,45.74-12.79,15.29-4.31,26.4-9.76,41.14-15.92,24.27-10.14,38.41-15.82,68.93-40.12,27.57-23.61,43.58-52.42,52.7-87.22l45.6-18.51c3.29,3.62,6.71,4.07,10.52,2.43,14.07-6.07,26.02-14.35,38.05-24.42,44.22-37.06,85.28-57.54,141.66-70.26l52.66-11.9,10.89-3.12c16.91-4.86,31.91-15.45,38.69-31.87,4.99-12.07.75-24.19-10.31-30.47-7.88-4.48-16.74-5.72-26.06-4.48-53.63,7.27-113.34,30.13-161.46,53.95l-87.93,43.51-27.46,12.35c-1.48.69-1.7,4.17-1.16,6.2l-34.82,12.83c-9.43-7.34-19.32-11.79-30.17-15.73-52.1-18.89-126.28-20.42-183.22-16.74-72.18,4.65-142.63,17.54-211.02,39.29-46.91,14.91-131.05,48.4-153.39,91.82-8.26,16.08-5.12,33.59,7.73,46.01,3.04,5.57,7.26,12.54,12.98,20.08,3.78,4.99,11.65,14.75,22.93,24.44,0,0,17.37,14.91,40.72,25.04ZM696.87,668.31l15.09,13.49-40.26,16.08c-3.31-6.35-7.06-11.21-12.33-15.28l37.51-14.29ZM714.69,685.7c.93.41,2.32,3.06,1.4,3.42l-41.3,16.33c-.6.24-1.59-2.6-1.23-3.14.49-.77,1.57-1.51,2.93-2.04l34.56-13.77c1.23-.49,2.69-1.23,3.64-.8ZM612.06,826.91c-34.93,30-85.86,50.12-130.67,62.49-70.26,19.41-151.91,29.03-224.86,22.83-64.32-5.49-124.19-22.57-161.03-79.3,25.85,15.19,56.38,22.55,85.61,26.28,39.23,4.99,78.27,5.6,117.97,3.51l17.71-.93c82.01-6.43,170.41-24.23,246.38-55.2,23.33-9.6,45.3-20.49,66.15-34.22,12.05-7.92,22.6-16.74,32.69-27.98-8.03,32.52-25.26,61.33-49.95,82.51ZM645.29,755.33c-33.87,29.03-89.56,51.93-132.78,65.25-101.42,31.29-225.44,48.1-331.27,34.58-30.41-3.87-72.41-13.51-93.42-34.3-8.54-8.41-12.87-20.08-9.88-31.55,11.62-44.46,97.98-80.05,140.91-94.66,69.25-23.54,140.89-37.42,214.06-42.91,62.26-4.67,160.19-4.48,213,26.06,7.3,4.2,13.62,9.36,18.51,15.95,15.97,21.52.06,45.15-19.13,61.59ZM717.72,718.19l-50.03,20.29c3.81-9.88,7.85-18.42,7.21-28.75l42.18-16.79c1.53,8.37,1.59,16.48.65,25.24ZM720.37,686.81c-.65-1.14-.52-1.66.62-2.26,20.23-10.57,38.52-22.44,58.15-34.3,39.42-23.8,80.33-42.18,124.4-55.33l69.47-17.56c9.1-2.3,17.88-4.37,26.38-8.13.56-.24,1.46-1.33,1.81-1.18.54.19,1.36,1.38,1.44,1.96.09.67-.6,1.64-1.61,1.96l-26.77,8.76-51.8,13.94c-51.39,13.86-99.4,34.32-145.47,60.86l-55.28,31.87c-.58.32-1.08-.15-1.33-.58ZM970.23,612.01c-15,5.27-29.98,8.26-45.6,11.6-24.86,5.32-48.78,10.91-72.63,19.86-34.07,12.78-64.15,31.76-92.43,55.28-12.07,10.05-23.33,18.57-37.72,24.34.49-11.66.77-21.41.04-31.76l66.82-38.07c56.73-32.32,116.89-51.02,179.99-67.27l34.35-10.54c-1.23,17.24-17.41,31.16-32.82,36.56Z"/>
    <path class="st29" d="M999.35,564.31c-6.41,4.43-13.56,6.09-20.85,7.81-26.32,6.2-52.01,11.77-78.12,19.71-48.29,14.65-92.99,35.59-135.29,62.73-15.9,9.47-30.51,19.02-47.69,27.35-5.94-7.02-12.59-12.85-20.66-19.15l38.18-17.9,38.8-19.86,31.14-14.98c31.42-15.13,62.3-28.9,95.78-39.45,23.99-7.57,46.93-13.56,72-16.27,10.01-1.08,19.43,2.56,26.71,10.01Z"/>
    <path class="st11" d="M612.07,826.91c-34.94,29.99-85.88,50.12-130.68,62.49-70.26,19.41-151.9,29.04-224.87,22.83-64.31-5.47-124.17-22.57-161.02-79.3,25.83,15.2,56.39,22.55,85.6,26.28,6.94,16.84,19.92,29.71,36.32,40.15,40.71,6.74,83.47,7.33,124.88,4.13-13.31-11.16-21.54-25.63-25.52-41.7,82.02-6.43,170.42-24.23,246.38-55.21,23.33-9.58,45.31-20.47,66.16-34.2-.82,19.13-7.07,36.95-17.13,52.97-1.03.06-1.08,1.2-.13,1.55Z"/>
    <path class="st22" d="M664.42,693.74c-4.88-6.59-11.21-11.75-18.51-15.95-52.81-30.54-150.74-30.73-213-26.06-73.17,5.49-144.81,19.37-214.06,42.91-42.93,14.61-129.29,50.21-140.91,94.66-2.99,11.47,1.33,23.13,9.88,31.55,21,20.79,63.01,30.43,93.42,34.3,105.83,13.51,229.85-3.29,331.27-34.58,43.21-13.32,98.9-36.22,132.78-65.25,19.2-16.44,35.1-40.07,19.13-61.59ZM660.87,716.86c-4.45,42.16-91.03,78.76-129.63,92.17-101.19,35.08-225.27,53.28-332.72,42.89-23.16-2.24-45.19-6.26-66.84-13.77-24.17-8.37-51.78-25.69-43.38-52.51,12.78-40.82,95.5-74.2,135.92-87.8,73.47-24.75,149.71-38.39,227.63-42.57,52.08-2.78,118.87-.62,166.56,16.72,20.42,7.42,44.87,22.08,42.46,44.87Z"/>
    <path class="st29" d="M759.58,698.77c-12.08,10.04-23.33,18.57-37.72,24.32.49-11.65.78-21.41.05-31.75l66.81-38.07c56.71-32.31,116.88-51.02,179.98-67.27l34.35-10.55c-1.23,17.24-17.42,31.17-32.82,36.58-14.99,5.26-29.97,8.26-45.59,11.6-24.85,5.32-48.78,10.89-72.64,19.85-34.06,12.79-64.14,31.77-92.42,55.3Z"/>
    <path class="st21" d="M316.79,861.79c3.98,16.07,12.2,30.53,25.52,41.7-41.41,3.2-84.16,2.6-124.88-4.13-16.4-10.44-29.37-23.31-36.32-40.15,39.23,5,78.27,5.59,117.97,3.51l17.71-.93Z"/>
    <path class="st30" d="M721.71,687.39c-.59.34-1.08-.13-1.33-.57-.66-1.14-.53-1.66.62-2.26,20.23-10.57,38.52-22.45,58.15-34.31,39.41-23.79,80.32-42.18,124.41-55.32l69.45-17.57c9.11-2.3,17.88-4.37,26.39-8.13.55-.24,1.45-1.33,1.81-1.2.54.21,1.35,1.39,1.43,1.96.1.68-.61,1.63-1.62,1.97l-26.77,8.77-51.78,13.94c-51.4,13.84-99.42,34.31-145.49,60.86l-55.27,31.85Z"/>
    <path class="st2" d="M717.72,718.19l-50.03,20.3c3.8-9.88,7.84-18.42,7.19-28.76l42.19-16.79c1.53,8.38,1.58,16.5.64,25.25Z"/>
    <path class="st32" d="M612.07,826.91c-.95-.35-.9-1.49.13-1.55,10.06-16.02,16.31-33.84,17.13-52.97,12.04-7.92,22.59-16.76,32.67-27.98-8.02,32.5-25.25,61.31-49.93,82.5Z"/>
    <path class="st31" d="M711.95,681.79l-40.27,16.07c-3.29-6.34-7.05-11.2-12.32-15.27l37.51-14.28,15.08,13.48Z"/>
    <path class="st28" d="M674.79,705.44c-.61.24-1.6-2.6-1.24-3.14.51-.77,1.59-1.51,2.94-2.05l34.56-13.76c1.22-.49,2.69-1.23,3.64-.8s2.32,3.06,1.4,3.43l-41.3,16.32Z"/>
    <path class="st10" d="M618.41,671.99c-47.69-17.34-114.48-19.5-166.56-16.72-77.92,4.17-154.17,17.82-227.63,42.57-40.41,13.6-123.14,46.98-135.92,87.8-8.39,26.81,19.22,44.14,43.38,52.51,21.65,7.51,43.68,11.53,66.84,13.77,107.45,10.39,231.53-7.81,332.72-42.89,38.61-13.41,125.18-50.01,129.63-92.17,2.41-22.79-22.04-37.44-42.46-44.87ZM415.65,835.56c-106.26,20.77-220.36,19.26-275.92,1.53,26.86-54.08,150.34-92.08,224.86-104.41,78.25-12.95,225.2-15.67,252.43,31.33-47.54,29.87-116.1,54.9-201.36,71.55ZM651.27,731.79l-9.51,12.03c-6.37,6.89-13.32,11.66-21.24,17.69-15.3-23.93-53.07-32.26-80.68-36.71-11.23-1.79-22.1-2.71-33.33-3.51l-12.76-.9c-14.25-1.01-27.85-.62-42.18-.04-62.26,2.5-123.57,12.63-182.83,31.53-38,12.09-88.21,32.86-116.31,60.34-6.8,6.65-12.59,13.58-16.2,23.35-24.92-7.92-55.33-25.87-42.57-53.18,19-40.63,106.18-73.34,149.95-86.7,74.61-22.79,151.78-35.21,229.79-37.14,14.18-.34,28.36.22,42.35.6l13.97.41,29.5,2.84,9.04,1.46c26.21,4.28,65.68,12.57,82.29,32.99,8.54,10.5,8.18,24.38.73,34.95Z"/>
    <path class="st24" d="M617.01,764.01c-47.54,29.87-116.1,54.9-201.36,71.55-106.26,20.77-220.36,19.26-275.92,1.53,26.86-54.08,150.34-92.08,224.86-104.41,78.25-12.95,225.2-15.67,252.43,31.33Z"/>
    <path class="st1" d="M651.27,731.79l-9.51,12.03c-6.37,6.89-13.32,11.66-21.24,17.69-15.3-23.93-53.07-32.26-80.68-36.71-11.23-1.79-22.1-2.71-33.33-3.51,15.88-16.72,27.7-38.69,23.2-61.74l29.5,2.84,9.04,1.46c26.21,4.28,65.68,12.57,82.29,32.99,8.54,10.5,8.18,24.38.73,34.95Z"/>
    <path class="st24" d="M473.38,658.55c6.57,22.62-5.87,45.1-21.82,61.79-62.24,2.51-123.56,12.64-182.83,31.53-37.99,12.1-88.19,32.87-116.3,60.34-6.82,6.66-12.59,13.58-16.21,23.35-24.93-7.91-55.33-25.87-42.56-53.17,19-40.63,106.16-73.34,149.93-86.7,74.61-22.78,151.79-35.19,229.79-37.13Z"/>
    <path class="st1" d="M515.75,659.15c2.06,17.4-1.88,34.1-12.23,47.98l-9.76,13.26c-14.25-1.02-27.85-.63-42.2-.05,15.95-16.69,28.39-39.17,21.82-61.79,14.19-.35,28.37.2,42.37.6Z"/>
    <path class="st19" d="M506.51,721.29l-12.76-.9,9.77-13.26c10.35-13.88,14.29-30.58,12.22-47.99l13.97.41c4.5,23.05-7.32,45.02-23.2,61.74Z"/>
  </g>
  <g id="_레이어_5" data-name="레이어_5" class="st9">
    <path class="st16" d="M225.05,817.83c-8.07-3.01-3.29-10.89-5.15-11.97-.43-.25-1.32-.79-2.38-.58-3.69.72-5.84,4.26-6.16,7.28-.35,3.34,1.57,5.89,4.26,8.1,3.05,2.51,7.12,3.58,10.52.76.89-.74.24-3.09-1.09-3.59Z"/>
    <path class="st12" d="M402.44,740.54c9.89.15,56.23-6.95,73.24,4.38,7.42,4.94,11.15,9.93,11.15,9.93,13.13,16.51,25.28,10.53,44.7,13.94.4,2.2,2.51,3.3,4.45,4.54,7.16,4.56,8.87,13.87,4.18,21.07-5.37,8.24-13.72,12.73-22.72,15.83l-41.75,14.4c-14.53,5-28.47,10.02-43.69,12.33-17.44,2.64-34.59,1.94-52.1,3.15-22.55,1.56-44.11,5.53-66.39,9.34-15.68,2.69-30.52,2.88-45.54-.59-9.47-2.2-16.05-7.11-21.78-15.02-7.46-10.31-36.4-1.5-40.3-16.16-2.64-9.89,6.58-17,18.67-19.44,10.33-2.09,17.4-6.36,20.7-16.03,2.53-7.38,9.91-10.86,16.73-13.83,1.94-.86,4.29-1.45,4.49-3.44,6.34-2.18,12.93-3.33,19.75-4.25,7.98-.86,22.22-5.75,35.52-12.69,26.75-13.98,47.82-7.96,80.68-7.46Z"/>
    <path class="st3" d="M428.2,759.15c4.26,9.55,2.46,20.22-6.18,27.37-18.21,15.04-49.76,19.64-73.78,17.27-9.95-.99-19.64-2.87-27.91-8.47-7.37-4.99-11.9-12.82-10.19-21.85.16-.82-.69-1.15-.83-1.43,10.35-12.12,25.01-19.63,40.77-23.46,26.13-6.35,57.38-5.31,78.13,10.59ZM408.3,757.52c.28-6.87-21.37-9.89-22.44-4.4-.16.83.07,2.71,1.25,2.75,11.53.4,20.99,6.6,21.2,1.65ZM330.83,779.35c-2.46-2.28-4.96-3.34-7.41-1.74-2.07,1.35-2.35,5.91.06,8.27,8.87,8.68,29.49,8.79,26.25,1.5-1.82-4.09-13.14-2.69-18.9-8.02ZM366.77,787.76c-1.71-2.51-7.65-1.69-8.24.93-.86,3.78,2.4,4.7,4.82,4.27,2.08-.37,5.54-2.09,3.42-5.2Z"/>
    <path class="st14" d="M498.41,831.98c-60.53,11.82-43.27,13.66-83.56,19.49-84.12,12.17-86.62-5.4-128.98,6.74-10.86,3.11-40.26,12.31-50.57.21-2.13-2.5-2.62-2.39-3.69-6.59-3.89-15.33-22.58-11.49-36.22-17.52-5.08-2.25-10.05-6.43-9.92-12.39.4-17.31,36.73-22.14,48.07-37.88,5.01-6.95,11.63-11.75,19.73-14.54l13.22-4.56c-.21,1.99-2.56,2.58-4.5,3.43-6.82,2.98-14.21,6.46-16.73,13.84-3.31,9.66-10.37,13.94-20.71,16.03-12.08,2.44-21.31,9.55-18.67,19.43,3.91,14.68,32.84,5.87,40.31,16.17,5.72,7.89,12.31,12.81,21.77,15.01,15.02,3.5,29.88,3.29,45.53.6,22.3-3.82,43.85-7.78,66.4-9.35,17.51-1.21,34.65-.49,52.1-3.14,15.21-2.31,29.16-7.33,43.69-12.34l41.75-14.4c9-3.1,17.35-7.59,22.73-15.83,4.69-7.2,2.96-16.51-4.19-21.07-1.93-1.23-4.04-2.35-4.44-4.55,8.28,1.45,16.78,3.98,23.34,9.71,2.6,2.27,6.78,6.68,7.16,12.89.38,6.12-3.28,10.84-4.69,12.67-14.99,19.36-58.94,27.94-58.94,27.94Z"/>
    <path class="st27" d="M309.3,772.02c.13.29.98.61.83,1.43-1.71,9.03,2.82,16.86,10.19,21.85,8.27,5.6,17.96,7.49,27.91,8.47,24.01,2.38,55.57-2.23,73.78-17.27,8.65-7.14,10.44-17.82,6.18-27.37,4.25,3.26,7.96,7.32,10.59,12.17,10.14,18.67-11.27,33.1-31,39.26-29.44,9.18-86.7,14.58-102.69-10.1-5.95-9.18-2.81-20.25,4.2-28.46Z"/>
    <path class="st26" d="M297.68,790.39c.41,15.85,14.38,24.8,29.78,28.58,25.15,6.18,52.08,3.81,76.99-2.96,22.18-6.03,45.73-19.31,39.96-42.56,6.16,2.21,9.88,9.33,8.8,16.69-3.12,21.27-34.24,33.26-55.74,37.78-23.64,4.96-47.8,5.9-71.09-.08-9.91-2.55-19.1-6.37-26.12-13.54-11.02-11.25-5.11-23.88-3.88-24.11.38-.07.75-.1,1.31.21Z"/>
    <path class="st35" d="M225.05,817.83c1.34.5,1.99,2.85,1.09,3.59-3.4,2.82-7.47,1.75-10.52-.76-2.69-2.21-4.61-4.76-4.26-8.1.31-3.03,2.46-6.57,6.16-7.28,1.07-.21,1.95.33,2.38.58,1.86,1.08-2.92,8.96,5.15,11.97Z"/>
    <path class="st4" d="M330.83,779.35c5.76,5.34,17.08,3.93,18.9,8.02,3.24,7.29-17.38,7.18-26.25-1.5-2.41-2.36-2.13-6.92-.06-8.27,2.45-1.59,4.95-.53,7.41,1.74Z"/>
    <path class="st34" d="M408.3,757.52c-.2,4.95-9.67-1.25-21.2-1.65-1.18-.04-1.41-1.92-1.25-2.75,1.07-5.48,22.72-2.46,22.44,4.4Z"/>
    <path class="st25" d="M366.77,787.76c2.11,3.11-1.34,4.83-3.42,5.2-2.42.43-5.68-.49-4.82-4.27.6-2.62,6.54-3.44,8.24-.93Z"/>
  </g>
  <g id="_레이어_8" data-name="레이어_8" class="st9">
    <path d="M668.58,738.12l-.89.36c3.31-8.57,6.78-16.14,7.22-24.75-1.33.07-2.66.14-3.99.21-.66,15.18-12.35,30.01-25.63,41.38-33.87,29.03-89.56,51.93-132.78,65.25-101.42,31.29-225.44,48.1-331.27,34.58-30.41-3.87-72.41-13.51-93.42-34.3-7.12-7.01-11.29-16.27-10.76-25.8-1.28.08-2.55.13-3.84.17-.34,10.61,3.88,20.87,12.25,28.96,3.04,5.57,7.26,12.54,12.98,20.08,3.78,4.99,11.65,14.75,22.93,24.44,0,0,17.37,14.91,40.72,25.04,61.51,26.69,159.59,37.29,296.06,5.59,7.82-1.82,28.52-7.94,45.74-12.79,15.29-4.31,26.4-9.76,41.14-15.92,24.27-10.14,38.41-15.82,68.93-40.12,27.57-23.61,43.58-52.42,52.7-87.22l1.15-.47c-.06-1.61.19-3.22.75-4.71ZM612.06,826.91c-34.93,30-85.86,50.12-130.67,62.49-70.26,19.41-151.91,29.03-224.86,22.83-64.32-5.49-124.19-22.57-161.03-79.3,25.85,15.19,56.38,22.55,85.61,26.28,39.23,4.99,78.27,5.6,117.97,3.51l17.71-.93c82.01-6.43,170.41-24.23,246.38-55.2,23.33-9.6,45.3-20.49,66.15-34.22,12.05-7.92,22.6-16.74,32.69-27.98-8.03,32.52-25.26,61.33-49.95,82.51Z"/>
    <path class="st11" d="M612.07,826.91c-34.94,29.99-85.88,50.12-130.68,62.49-70.26,19.41-151.9,29.04-224.87,22.83-64.31-5.47-124.17-22.57-161.02-79.3,25.83,15.2,56.39,22.55,85.6,26.28,6.94,16.84,19.92,29.71,36.32,40.15,40.71,6.74,83.47,7.33,124.88,4.13-13.31-11.16-21.54-25.63-25.52-41.7,82.02-6.43,170.42-24.23,246.38-55.21,23.33-9.58,45.31-20.47,66.16-34.2-.82,19.13-7.07,36.95-17.13,52.97-1.03.06-1.08,1.2-.13,1.55Z"/>
    <path class="st22" d="M661,714.42c-.02.8-.04,1.61-.13,2.44-4.45,42.16-91.03,78.76-129.63,92.17-101.19,35.08-225.27,53.28-332.72,42.89-23.16-2.24-45.19-6.26-66.84-13.77-21.52-7.46-45.76-22.02-44.87-44.06-3.24.43-6.48.77-9.74.98-.53,9.53,3.65,18.79,10.76,25.8,21,20.79,63.01,30.43,93.42,34.3,105.83,13.51,229.85-3.29,331.27-34.58,43.21-13.32,98.9-36.22,132.78-65.25,13.29-11.38,24.98-26.2,25.63-41.38-3.31.18-6.62.35-9.92.47Z"/>
    <path class="st21" d="M316.79,861.79c3.98,16.07,12.2,30.53,25.52,41.7-41.41,3.2-84.16,2.6-124.88-4.13-16.4-10.44-29.37-23.31-36.32-40.15,39.23,5,78.27,5.59,117.97,3.51l17.71-.93Z"/>
    <path class="st32" d="M612.07,826.91c-.95-.35-.9-1.49.13-1.55,10.06-16.02,16.31-33.84,17.13-52.97,12.04-7.92,22.59-16.76,32.67-27.98-8.02,32.5-25.25,61.31-49.93,82.5Z"/>
    <path class="st10" d="M656.84,714.53c0,6.02-1.89,12.05-5.56,17.26l-9.51,12.03c-6.37,6.89-13.32,11.66-21.24,17.69l-3.51,2.5c-47.54,29.87-116.1,54.9-201.36,71.55-106.26,20.77-220.36,19.26-275.92,1.53.1-.2.22-.4.32-.6-1.38-.26-2.58-.76-3.61-1.45-.07.17-.15.34-.22.52-21.35-6.79-46.71-20.94-45.51-42.03-1.3.2-2.6.38-3.9.55-.89,22.04,23.35,36.61,44.87,44.06,21.65,7.51,43.68,11.53,66.84,13.77,107.45,10.39,231.53-7.81,332.72-42.89,38.61-13.41,125.18-50.01,129.63-92.17.09-.83.11-1.63.13-2.44-1.39.05-2.77.08-4.16.11Z"/>
  </g>
  <g id="_레이어_4" data-name="레이어_4">
    <path class="st7" d="M282.99,646.32c-15.38-1.41-33.96-10.01-41.74-40.2-3.28-12.72-2.58-26.97-.97-43.06,1.02-10.2-2.81-18.69-5.59-21.91l-9.08-10.53c-4.86-5.63-6.69-18.52-5.37-33.78,1.65-19.05,6.49-34.49,13.6-42.4l12.63-14.07c4.87-5.42,9.26-13.01,13.18-22.94,3.78-9.58,7.81-16.77,12.59-21.7,6.75-6.95,13.56-10.68,20.45-11.52l14.13-1.72c6.21-.76,12.32-4.01,18.59-9.88,5.9-5.53,11.51-7.51,17.08-4.84s10.8,1.09,16.39-3.8c15.44-13.5,33.63-4.66,45.36,14.12,3.87,6.19,5.98,16.81,4.69,30.37-1.18,12.34,1.08,21.09,5.42,23.27l11.7,5.88c6.38,3.2,11.69,10.84,15.25,23.65,2.82,10.16,2.98,22.07,1.13,35.6-3.98,29.05-12.73,44.25-23.44,55.23-20.16,20.67-36.51,19.4-54.14,31.53-25.53,17.56-46.34,65.96-81.83,62.7ZM242.14,563.82c-5.47,31.84,3.39,55.13,13.66,65.24,10.12,9.97,21.2,13.77,32.94,13.09,11.23-.65,22.14-6.66,33.33-17.89l23.49-26.49c10.83-12.21,21.24-20.11,32.28-25.35l26.74-12.71c7.55-3.59,14.89-11.09,22.02-21.34,4.78-6.87,9.04-16.09,11.73-28.19,4.15-18.71,5.26-33.02,1.18-47.18-3.68-12.76-9.37-18.51-15.71-22.01l-11.47-6.31c-4.17-2.3-6.09-12.9-5.03-25.11s-.28-21.42-3.76-27.03c-7.76-12.5-16.91-19.15-26.83-20.79-5.93-.98-11.66,1.1-17.72,6.37s-11.72,6.42-17.39,3.81c-4.68-2.16-9.51-1.03-14.52,3.67-19.35,18.17-31.56,7.19-48.59,18.81-7.12,4.86-13.32,13.96-18.88,28.26-11.1,28.56-25.84,27.3-33.92,52.61-3.79,11.87-3.24,25.59.65,32.97,3.3,6.26,7.41,8.97,11.34,12.73,5.13,4.9,7.81,17.04,5.58,32.7l-1.12,10.15ZM241.7,553.06c1.98-12.7-.01-22.09-3.61-26.5l-9.5-9.57c-3.12-3.14-5.36-8.35-6.78-16.57-1.2,11.56.8,19.57,3.84,24.84l8.97,10.48c3.11,3.64,5.5,8.83,7.09,17.33Z"/>
    <path class="st6" d="M438.32,510.18c-1.42-2.03-2.19.31-3.38,3.05-3.86,8.88-8.31,13.57-13.01,18.24-13.27,13.16-26.46,20.12-39.9,24.78-10.84,3.76-21.15,10.42-31.72,22.52l-22.36,25.59c-13.48,15.44-27.01,22.78-40.47,20.39-8.65-1.54-16.74-4.2-24.81-9.09-10.55-6.39-20.09-22.77-20.53-51.84l1.12-10.15c2.23-15.66-.46-27.8-5.58-32.7-3.93-3.76-8.04-6.47-11.34-12.73-3.89-7.39-4.44-21.1-.65-32.97,8.08-25.31,22.82-24.04,33.92-52.61,5.56-14.3,11.76-23.4,18.88-28.26,17.03-11.62,29.24-.65,48.59-18.81,5.01-4.7,9.84-5.83,14.52-3.67,5.67,2.61,11.37,1.43,17.39-3.81s11.79-7.35,17.72-6.37c9.92,1.64,19.07,8.29,26.83,20.79,3.48,5.61,4.79,15.29,3.76,27.03s.86,22.82,5.03,25.11l11.47,6.31c6.34,3.49,12.03,9.24,15.71,22.01,4.09,14.17,2.97,28.47-1.18,47.18Z"/>
    <path class="st5" d="M438.32,510.18c-2.68,12.1-6.94,21.32-11.73,28.19-7.13,10.25-14.46,17.75-22.02,21.34l-26.74,12.71c-11.03,5.24-21.44,13.14-32.28,25.35l-23.49,26.49c-11.19,11.23-22.1,17.24-33.33,17.89-11.74.68-22.82-3.12-32.94-13.09-10.27-10.11-19.13-33.4-13.66-65.24.44,29.07,9.98,45.45,20.53,51.84,8.07,4.89,16.16,7.55,24.81,9.09,13.46,2.39,26.98-4.96,40.47-20.39l22.36-25.59c10.57-12.1,20.88-18.76,31.72-22.52,13.45-4.66,26.63-11.63,39.9-24.78,4.71-4.67,9.16-9.36,13.01-18.24,1.19-2.74,1.95-5.07,3.38-3.05Z"/>
    <path class="st8" d="M241.7,553.06c-1.59-8.5-3.97-13.69-7.09-17.33l-8.97-10.48c-3.04-5.26-5.04-13.28-3.84-24.84,1.41,8.21,3.66,13.43,6.78,16.57l9.5,9.57c3.6,4.42,5.59,13.8,3.61,26.5Z"/>
    <path class="st23" d="M336.01,512.71c-.78,0-2.19.19-3.5.92,6.29,3.92,9.36,10.43,7.74,18.31-1.89,9.21-6.6,17.91-12.92,25.53-14.56,17.59-43,38.47-57.36,22.04l-2.02,1.26c-.99-7.62.63-15.64,4.36-23.45,11.98-25.1,38.09-46,63.7-44.62ZM289.93,546.38c.53-1.62,0-3.22-.99-3.56-6.31-2.15-18.43,19.07-12.94,21.55,4.25,1.92,11.38-10.25,13.93-17.99ZM318.15,522.46c-2.32-4.91-16.74,2.86-16.19,7.97.08.75,1.3,2.14,2.09,1.62,7.89-5.26,15.39-6.87,14.11-9.59ZM297.02,566.49l-9.69,4.21-5.21.36c-2.09.14-3.68,1.96-3.65,3.76.07,5.06,12.49,6.16,21.31-3.53,1.14-1.25,1.41-2.63.92-3.64-.52-1.08-1.97-1.9-3.68-1.16ZM308.34,558.53c-.98.15-1.69.87-2.18,1.33-1.68,1.55-1.83,3.06-.74,4.37.98,1.18,2.61.89,4.21-.56,1.12-1.01,1.88-2.39,1.52-3.53-.26-.86-1.55-1.8-2.81-1.61Z"/>
    <path class="st33" d="M336.01,512.71c5.08-.05,10.51,2.15,13.66,6.39,7.62,10.25-.72,27.01-8.93,37.94-12.61,16.79-33.84,37.04-53.96,38.49-10,.72-17.6-5.45-18.82-14.76l2.02-1.26c14.36,16.43,42.8-4.45,57.36-22.04,6.31-7.63,11.03-16.33,12.92-25.53,1.62-7.88-1.46-14.39-7.74-18.31,1.32-.73,2.72-.91,3.5-.92Z"/>
    <path class="st18" d="M289.93,546.38c-2.55,7.74-9.68,19.91-13.93,17.99-5.49-2.48,6.63-23.7,12.94-21.55.99.34,1.52,1.94.99,3.56Z"/>
    <path class="st20" d="M297.02,566.49c1.7-.74,3.15.08,3.68,1.16.49,1.01.22,2.39-.92,3.64-8.82,9.69-21.24,8.59-21.31,3.53-.02-1.81,1.56-3.62,3.65-3.76l5.21-.36,9.69-4.21Z"/>
    <path class="st0" d="M318.15,522.46c1.28,2.72-6.22,4.32-14.11,9.59-.78.52-2.01-.87-2.09-1.62-.55-5.11,13.87-12.88,16.19-7.97Z"/>
    <path class="st17" d="M308.34,558.53c1.26-.19,2.54.75,2.81,1.61.35,1.15-.4,2.52-1.52,3.53-1.6,1.45-3.23,1.74-4.21.56-1.09-1.31-.93-2.82.74-4.37.49-.45,1.2-1.18,2.18-1.33Z"/>
  </g>
  <g id="_레이어_3" data-name="레이어_3" class="st9">
    <path class="st14" d="M347.81,380.61c-6.1-2.99-11.78-6.42-16.9-11.04-12.81-11.58-20.87-28.59-20.74-46.98.19-28.26,20.69-50.77,47.05-56.54,17.57-3.85,32.4-.22,47.81,7.6l.59,17.79-14.26,9.97,1.62,21.29-18.64,10.46,1.3,20.5-13.43,7.95-1.25,24.03-4.58-1.54-8.57-3.49Z"/>
  </g>
  <g id="_레이어_2" data-name="레이어_2" class="st9">
    <path class="st14" d="M414.31,394.94l-8.16-21.12,9.19-12.74-9.73-18.51,12.7-16.98-8.84-15.64-2.17-3.46,8.57-14.17-7.2-16.65c27.33,2.68,68.51,18.35,79.12,47.39,5.62,15.37-.6,30.36-11.32,41.54-16,16.69-40.59,26.6-62.18,30.33Z"/>
  </g>
  <g id="_레이어_9" data-name="레이어_9" class="st9">
    <ellipse class="st13" cx="238.19" cy="177.11" rx="36.91" ry="44.96"/>
    <ellipse class="st13" cx="328.64" cy="177.11" rx="36.91" ry="44.96"/>
    <circle class="st15" cx="462.75" cy="249.88" r="19.7"/>
    <circle class="st15" cx="532.45" cy="249.88" r="19.7"/>
  </g>
</svg>