<svg width="402" height="103" viewBox="0 0 402 103" fill="none" xmlns="http://www.w3.org/2000/svg">
<g filter="url(#filter0_d_463_1224)">
<path d="M16.8199 59.1922C16.787 59.3232 16.7047 59.798 16.5732 60.6167C21.6387 60.6167 24.4511 60.6167 25.0103 60.6167C26.5891 60.715 28.1516 60.9279 29.6976 61.2554C30.2568 61.2881 30.7173 61.5337 31.0791 61.9922C31.4739 62.4507 31.6383 62.9583 31.5725 63.5151C31.4739 65.3162 30.7831 66.3151 29.5003 66.5118C27.6253 66.8065 25.7504 66.9701 23.8755 67.0026C22.8229 67.1012 21.7703 67.1174 20.7177 67.0519C18.0862 66.8883 15.4713 66.5443 12.8727 66.0203C11.9846 65.7583 11.2609 65.2507 10.7017 64.4975C10.1754 63.7116 9.94518 62.8437 10.011 61.894C9.94518 59.8635 10.1919 57.8658 10.7511 55.9009C10.9813 55.0167 11.2116 54.0506 11.4418 53.0026C11.705 51.9219 11.9023 51.005 12.0339 50.2517C12.1984 49.4657 12.3957 48.4506 12.626 47.2061C12.8562 45.9616 13.0207 45.0119 13.1194 44.3569C13.2838 43.5709 13.7772 40.8037 14.5996 36.0551C14.7969 35.0399 15.1094 34.2375 15.5371 33.6481C15.9976 33.0258 16.4909 32.7147 17.0172 32.7147C18.004 32.8784 18.8263 33.3369 19.4842 34.0902C20.1421 34.8434 20.5039 35.7276 20.5697 36.7428C20.5039 39.4937 20.2572 42.2119 19.8296 44.8973C19.5993 46.3383 19.3198 47.8447 18.9908 49.4167C18.6619 50.9558 18.2672 52.7406 17.8067 54.7711C17.3462 56.7688 17.0172 58.2425 16.8199 59.1922Z" fill="black"/>
<path d="M40.5026 64.5958C39.9435 65.1197 39.3185 65.5455 38.6277 65.873C37.312 65.8402 36.3416 65.4964 35.7167 64.8414C35.1246 64.1536 34.9601 63.2858 35.2233 62.2378C35.7495 59.9454 36.4403 57.7021 37.2956 55.5079C39.2034 50.2682 40.7493 44.9137 41.9335 39.4446C42.2296 38.2329 42.5749 37.0376 42.9696 35.8586C43.2986 35.0072 43.7591 34.4013 44.3512 34.0411C44.9432 33.6808 45.6011 33.6153 46.3248 33.8446C47.1471 34.0738 47.7721 34.565 48.1996 35.3182C48.6602 36.0387 48.8082 36.8083 48.6437 37.6271C48.249 39.5592 47.7721 41.5405 47.2128 43.571C45.4695 49.695 43.6933 55.8027 41.8841 61.894C41.621 62.8765 41.1605 63.7771 40.5026 64.5958Z" fill="black"/>
<path d="M60.1133 46.1746C60.1791 45.9126 60.5409 44.357 61.1988 41.5079C58.666 41.5079 56.824 41.4915 55.6727 41.4587C54.6201 41.426 53.9129 41.2786 53.5511 41.0166C53.1893 40.7219 52.8768 40.0669 52.6136 39.0517C52.2518 37.7417 52.2189 36.8247 52.515 36.3008C52.8439 35.7768 53.6662 35.4166 54.9819 35.2201C57.0213 34.9581 59.0607 34.8271 61.1001 34.8271C62.5803 34.7943 67.8432 34.778 76.8892 34.778H78.0237C78.8791 34.8435 79.5859 35.2037 80.1453 35.8587C80.7373 36.4809 81.017 37.2177 80.9844 38.0692C80.9185 38.8225 80.6225 39.4774 80.0957 40.0341C79.5696 40.5581 78.9117 40.8529 78.1221 40.9184C76.5104 41.0494 73.7805 41.2131 69.9317 41.4096C69.0111 41.4751 68.4353 41.5897 68.205 41.7535C68.0077 41.9172 67.7939 42.4412 67.5637 43.3255C66.9716 45.7816 66.1164 49.2858 64.998 53.8378C63.8796 58.3572 63.1395 61.3373 62.7777 62.7782C62.6132 63.3677 62.4158 63.9572 62.1856 64.5467C61.8895 65.2999 61.3797 65.8566 60.6561 66.2172C59.9324 66.5774 59.1923 66.6424 58.4358 66.4132C57.6463 66.2496 56.972 65.8731 56.4128 65.2836C55.8865 64.6941 55.6069 63.99 55.574 63.1712C55.574 62.549 55.6563 61.9268 55.8207 61.3046C56.9062 56.8179 57.6957 53.7068 58.189 51.9711C58.3864 51.2506 58.6989 50.2518 59.1265 48.9746C59.587 47.6974 59.9159 46.7641 60.1133 46.1746Z" fill="black"/>
<path d="M90.3244 46.1746C90.3902 45.9126 90.7521 44.357 91.4099 41.5079C88.8769 41.5079 87.035 41.4915 85.8836 41.4587C84.8313 41.426 84.1239 41.2786 83.762 41.0166C83.4002 40.7219 83.0878 40.0669 82.8244 39.0517C82.4626 37.7417 82.43 36.8247 82.726 36.3008C83.0552 35.7768 83.8774 35.4166 85.1931 35.2201C87.2326 34.9581 89.272 34.8271 91.3109 34.8271C92.7915 34.7943 98.0544 34.778 107.1 34.778H108.235C109.09 34.8435 109.797 35.2037 110.356 35.8587C110.948 36.4809 111.228 37.2177 111.195 38.0692C111.13 38.8225 110.834 39.4774 110.307 40.0341C109.781 40.5581 109.123 40.8529 108.333 40.9184C106.721 41.0494 103.992 41.2131 100.143 41.4096C99.2222 41.4751 98.6465 41.5897 98.4163 41.7535C98.2188 41.9172 98.0049 42.4412 97.7747 43.3255C97.1827 45.7816 96.3273 49.2858 95.2091 53.8378C94.0909 58.3572 93.3503 61.3373 92.9884 62.7782C92.8241 63.3677 92.6266 63.9572 92.3964 64.5467C92.1004 65.2999 91.5906 65.8566 90.8668 66.2172C90.1437 66.5774 89.4031 66.6424 88.6468 66.4132C87.8572 66.2496 87.183 65.8731 86.6236 65.2836C86.0975 64.6941 85.8178 63.99 85.7851 63.1712C85.7851 62.549 85.8673 61.9268 86.0316 61.3046C87.1172 56.8179 87.9067 53.7068 88.4003 51.9711C88.5972 51.2506 88.9102 50.2518 89.3373 48.9746C89.7982 47.6974 90.1268 46.7641 90.3244 46.1746Z" fill="black"/>
<path d="M117.427 59.1922C117.394 59.3232 117.312 59.798 117.18 60.6167C122.246 60.6167 125.058 60.6167 125.617 60.6167C127.196 60.715 128.758 60.9279 130.305 61.2554C130.864 61.2881 131.325 61.5337 131.686 61.9922C132.081 62.4507 132.245 62.9583 132.18 63.5151C132.081 65.3162 131.39 66.3151 130.107 66.5118C128.232 66.8065 126.358 66.9701 124.483 67.0026C123.43 67.1012 122.377 67.1174 121.325 67.0519C118.694 66.8883 116.078 66.5443 113.48 66.0203C112.592 65.7583 111.868 65.2507 111.309 64.4975C110.783 63.7116 110.552 62.8437 110.618 61.894C110.552 59.8635 110.799 57.8658 111.358 55.9009C111.589 55.0167 111.819 54.0506 112.049 53.0026C112.312 51.9219 112.509 51.005 112.641 50.2517C112.805 49.4657 113.003 48.4506 113.233 47.2061C113.463 45.9616 113.628 45.0119 113.727 44.3569C113.891 43.5709 114.385 40.8037 115.207 36.0551C115.404 35.0399 115.717 34.2375 116.144 33.6481C116.605 33.0258 117.098 32.7147 117.624 32.7147C118.611 32.8784 119.434 33.3369 120.091 34.0902C120.749 34.8434 121.111 35.7276 121.177 36.7428C121.111 39.4937 120.864 42.2119 120.437 44.8973C120.206 46.3383 119.927 47.8447 119.598 49.4167C119.269 50.9558 118.874 52.7406 118.414 54.7711C117.954 56.7688 117.624 58.2425 117.427 59.1922Z" fill="black"/>
<path d="M148.313 43.2762C148.281 43.4399 148.215 43.7674 148.116 44.2587C148.05 44.7172 147.985 45.1265 147.919 45.4868C148.708 45.716 149.497 45.8634 150.287 45.9289C151.11 45.8961 152.26 45.847 153.741 45.7815C155.221 45.6833 156.273 45.6341 156.899 45.6341C158.181 45.5359 159.185 46.0108 159.908 47.0587C160.731 48.3032 160.944 49.4167 160.55 50.3991C160.188 51.3816 159.316 51.9547 157.935 52.1184C156.586 52.2821 153.396 52.4786 148.363 52.7079C147.211 52.7734 146.505 52.9208 146.241 53.15C145.978 53.3465 145.682 54.0014 145.353 55.1149C145.254 55.4752 145.139 55.8682 145.008 56.2939C144.909 56.7196 144.794 57.2108 144.662 57.7676C144.531 58.3243 144.432 58.7664 144.366 59.0939C145.616 59.2249 146.257 59.2904 146.291 59.2904C151.554 59.5524 155.04 59.6998 156.751 59.7325C157.409 59.7653 157.918 59.929 158.28 60.2237C158.642 60.4857 158.855 60.9442 158.921 61.5992C158.954 61.7957 159.02 62.0741 159.119 62.4343C159.217 62.7618 159.267 63.0074 159.267 63.1711C159.431 63.6624 159.382 64.1209 159.119 64.5466C158.855 64.9724 158.477 65.2344 157.984 65.3326C157.129 65.6273 156.241 65.8238 155.32 65.9221C154.201 65.9875 152.244 66.0695 149.448 66.1677C146.685 66.2658 144.547 66.3807 143.034 66.5118C141.652 66.5443 140.386 66.2002 139.235 65.48C138.117 64.7267 137.311 63.7115 136.817 62.4343C136.554 61.6483 136.423 60.846 136.423 60.0272C136.423 59.2086 136.554 58.4226 136.817 57.6693C137.047 56.7196 137.475 55.4097 138.1 53.7395C138.758 52.0365 139.153 50.9722 139.284 50.5465C139.547 49.8587 139.86 48.8435 140.222 47.5008C140.584 46.1581 140.797 45.3722 140.863 45.1429C142.278 40.3615 143.314 36.9066 143.972 34.7779C144.136 34.1557 144.481 33.6644 145.008 33.3042C145.567 32.9439 146.159 32.7802 146.784 32.8129C153.396 32.5182 157.425 32.3872 158.872 32.4199C160.648 32.4854 162.359 32.8129 164.004 33.4024C164.793 33.6644 165.385 34.1557 165.78 34.8761C166.207 35.5638 166.339 36.3007 166.175 37.0866C165.944 38.6259 164.875 39.4119 162.968 39.4446C161.948 39.4446 160.533 39.4446 158.724 39.4446C156.915 39.4446 155.501 39.4446 154.481 39.4446C153.658 39.4446 152.836 39.5265 152.014 39.6902C150.501 39.9195 149.596 40.1978 149.3 40.5253C149.004 40.82 148.675 41.737 148.313 43.2762Z" fill="black"/>
<path d="M268.734 51.6764C268.8 51.9711 268.998 52.8225 269.327 54.2308C272.188 48.4998 273.767 45.3394 274.063 44.75C274.721 43.3418 275.544 42.6377 276.53 42.6377C277.254 42.5722 277.928 42.7195 278.553 43.0798C279.178 43.4073 279.655 43.8821 279.984 44.5044C281.859 47.6155 283.175 50.9395 283.931 54.4764C284.096 55.1969 284.326 55.8846 284.622 56.5396C285.016 56.1139 285.346 55.639 285.608 55.115C287.056 51.2179 287.993 48.5653 288.421 47.157C288.98 45.2904 289.655 42.6213 290.444 39.1499C290.773 38.1675 290.987 37.1686 291.085 36.1534C291.25 33.7627 292.187 32.5674 293.898 32.5674C294.918 32.6656 295.74 33.1241 296.364 33.9428C297.022 34.7288 297.286 35.6294 297.154 36.6446C296.858 39.0681 296.381 41.4587 295.724 43.8166C294.44 48.5653 292.878 53.2483 291.036 57.8659C289.655 60.6496 287.993 63.2695 286.052 65.7256C285.46 66.3476 284.737 66.6423 283.882 66.6099C283.027 66.5774 282.319 66.2334 281.76 65.5783C280.971 64.8251 280.411 63.9245 280.083 62.8765C279.819 62.0905 278.767 58.7993 276.925 53.0027C276.563 53.3957 276.25 53.8214 275.988 54.2799C275.592 55.1969 275.017 56.5068 274.26 58.2098C273.537 59.9127 273.011 61.1081 272.681 61.7957C272.188 63.4005 271.251 64.7104 269.869 65.7256C268.948 66.3807 267.928 66.5443 266.81 66.2171C265.724 65.8894 264.968 65.1853 264.54 64.1046C264.179 63.3186 263.932 62.4999 263.8 61.6484C262.715 55.8519 261.991 51.9056 261.629 49.8097C261.202 47.0588 260.445 42.0482 259.36 34.7779C259.228 33.8937 259.327 33.1733 259.656 32.6165C260.018 32.0598 260.561 31.7159 261.284 31.5849C262.501 31.3884 263.406 31.4539 263.998 31.7814C264.59 32.1089 264.984 32.7639 265.182 33.7463C267.418 44.9137 268.603 50.8904 268.734 51.6764Z" fill="black"/>
<path d="M325.93 39.1498C327.937 41.7043 328.776 44.5862 328.447 47.7956C328.315 52.1839 327.214 56.3103 325.141 60.1747C324.088 62.0741 322.657 63.646 320.849 64.8905C319.039 66.135 317.05 66.9207 314.878 67.2485C314.813 67.281 314.73 67.2973 314.632 67.2973C310.947 67.0681 307.839 65.6273 305.306 62.9746C303.826 61.2062 302.856 59.2085 302.395 56.9816C301.935 54.7547 302.05 52.5441 302.741 50.35C303.892 45.4704 306.145 41.1475 309.5 37.3814C309.862 36.9884 310.257 36.6281 310.685 36.3007C313.447 34.172 316.062 33.3697 318.53 33.8937C320.997 34.3849 323.463 36.1369 325.93 39.1498ZM319.467 57.129C321.375 54.5418 322.181 51.6435 321.885 48.4342C322.181 47.0259 322.065 45.6505 321.539 44.3078C321.013 42.9324 320.191 41.8025 319.072 40.9183C318.414 40.2305 317.608 39.903 316.654 39.9358C315.734 39.9358 314.961 40.2797 314.336 40.9674C313.678 41.5569 313.151 42.2119 312.757 42.9324C310.882 46.24 309.583 49.7605 308.859 53.4939C308.497 55.2295 308.645 56.9325 309.303 58.6027C309.632 59.4869 310.207 60.1746 311.03 60.6659C311.885 61.1243 312.789 61.2553 313.744 61.0588C316.244 60.6004 318.151 59.2904 319.467 57.129Z" fill="black"/>
<path d="M338.926 59.1922C338.894 59.3232 338.812 59.798 338.68 60.6167C343.745 60.6167 346.558 60.6167 347.117 60.6167C348.696 60.715 350.258 60.9279 351.804 61.2554C352.363 61.2881 352.824 61.5337 353.186 61.9922C353.581 62.4507 353.745 62.9583 353.679 63.5151C353.581 65.3162 352.89 66.3151 351.607 66.5118C349.732 66.8065 347.857 66.9701 345.982 67.0026C344.929 67.1012 343.877 67.1174 342.825 67.0519C340.193 66.8883 337.578 66.5443 334.979 66.0203C334.091 65.7583 333.367 65.2507 332.809 64.4975C332.282 63.7116 332.052 62.8437 332.118 61.894C332.052 59.8635 332.299 57.8658 332.858 55.9009C333.088 55.0167 333.319 54.0506 333.549 53.0026C333.811 51.9219 334.009 51.005 334.141 50.2517C334.305 49.4657 334.503 48.4506 334.733 47.2061C334.963 45.9616 335.127 45.0119 335.226 44.3569C335.391 43.5709 335.884 40.8037 336.706 36.0551C336.904 35.0399 337.216 34.2375 337.644 33.6481C338.104 33.0258 338.598 32.7147 339.124 32.7147C340.11 32.8784 340.933 33.3369 341.591 34.0902C342.249 34.8434 342.611 35.7276 342.677 36.7428C342.611 39.4937 342.364 42.2119 341.936 44.8973C341.706 46.3383 341.426 47.8447 341.098 49.4167C340.768 50.9558 340.374 52.7406 339.913 54.7711C339.453 56.7688 339.124 58.2425 338.926 59.1922Z" fill="black"/>
<path d="M372.823 42.4411C372.658 43.0306 371.918 45.1429 370.602 48.778H374.106C378.809 48.778 381.704 48.778 382.79 48.778C383.71 48.8108 384.286 49.0237 384.516 49.4167C384.78 49.7769 384.763 50.4318 384.467 51.3816C384.302 52.7898 383.644 53.9359 382.494 54.8202C381.375 55.7044 380.109 56.0483 378.694 55.8518C377.707 55.8845 376.293 55.9009 374.451 55.9009C372.609 55.8682 371.194 55.8682 370.208 55.9009C368.991 55.9009 368.234 55.9992 367.938 56.1957C367.675 56.3922 367.313 57.0471 366.853 58.1606C365.701 61.0097 364.896 62.8928 364.435 63.8098C363.744 65.218 363.02 66.1022 362.264 66.4625C361.54 66.7896 360.422 66.7572 358.909 66.3644C357.889 66.2989 357.149 65.8075 356.689 64.8905C356.195 63.9735 356.228 63.0729 356.787 62.1887C357.215 61.108 357.905 59.4378 358.859 57.1781C359.813 54.8857 360.521 53.15 360.981 51.971C361.475 50.7593 362.132 48.9582 362.955 46.5675C363.81 44.1768 364.304 42.8177 364.435 42.4903C365.619 39.2481 366.392 37.2013 366.754 36.3498C366.984 35.5638 367.445 34.958 368.135 34.5322C368.826 34.0738 369.566 33.9264 370.356 34.0902C371.145 34.1884 372.198 34.2867 373.514 34.3849C374.961 34.4832 375.948 34.5159 376.474 34.4832C377.296 34.4504 379.121 34.4012 381.95 34.3357C384.812 34.2375 387.016 34.172 388.562 34.1392C389.615 34.1065 390.355 34.3685 390.782 34.9252C391.21 35.482 391.309 36.268 391.078 37.2831C390.815 38.2984 390.503 39.2809 390.141 40.2305C390.075 40.4598 389.96 40.6563 389.795 40.82C389.664 40.951 389.467 41.0493 389.203 41.1148C388.973 41.1475 388.809 41.1803 388.71 41.213C388.611 41.213 388.381 41.213 388.019 41.213H376.129H374.55C374.155 41.1803 373.793 41.2785 373.464 41.5078C373.135 41.737 372.922 42.0481 372.823 42.4411Z" fill="black"/>
<path d="M182.984 78.4073L182.99 78.4133L183.021 78.4049C183.009 78.397 182.994 78.397 182.978 78.3958C182.98 78.4 182.982 78.4037 182.984 78.4073ZM182.91 78.2707L182.937 78.3213C182.929 78.299 182.918 78.2785 182.905 78.2593L182.91 78.2707ZM247.055 27.1877C245.67 27.289 244.313 28.2434 243.286 29.0284C243.213 29.0846 243.146 29.1493 243.073 29.2064C242.667 29.5248 242.271 29.8534 241.885 30.1957C241.779 30.2885 241.671 30.3796 241.567 30.4749C241.131 30.8705 240.706 31.2773 240.291 31.695C239.999 31.9887 239.715 32.291 239.431 32.5915C239.361 32.6664 239.287 32.7397 239.218 32.8146C239.238 32.6043 239.27 32.3948 239.286 32.1854C239.33 31.6158 239.374 30.9687 239.356 30.3166C239.351 30.0995 239.337 29.8815 239.316 29.6653C239.294 29.4512 239.261 29.2384 239.219 29.0276C239.09 28.4009 238.857 27.8177 238.458 27.3511C237.129 25.7965 235.191 26.6547 233.458 28.0493C233.253 28.2149 233.053 28.3855 232.857 28.561C232.564 28.8225 232.28 29.0928 232.004 29.3715C231.509 29.871 231.033 30.3879 230.575 30.9211C230.31 31.2268 230.086 31.4958 229.913 31.7018C229.504 32.1917 229.106 32.6907 228.719 33.1985C228.393 33.6289 228.077 34.0658 227.769 34.5089C227.727 34.5693 227.682 34.6272 227.641 34.6877C226.939 35.7015 226.298 36.7557 225.721 37.8447C224.425 36.7644 223.049 35.7842 221.603 34.9124L221.601 34.9116C220.637 34.3301 219.643 33.7984 218.624 33.3186L218.616 33.3144C214.143 31.2097 209.196 30.1352 204.282 30.4749L206.706 24.8216C206.938 24.2785 206.685 23.5002 205.967 23.5403C203.516 23.6799 201.231 22.1602 199.857 20.2207C198.277 17.9891 197.948 15.217 198.959 12.6755C200.94 7.68886 207.487 6.39473 211.877 9.01705C213.483 9.97573 214.357 11.4648 215.048 13.1378C215.289 13.7202 216.278 14.094 216.611 13.3413C218.369 9.35847 223.583 8.55729 227.248 10.2346C230.463 11.7058 232.128 15.0194 231.285 18.4514C231.078 19.3003 232.082 19.8418 232.715 19.2799C236.866 15.5976 244.202 17.4042 246.42 22.4122C247.083 23.9118 247.302 25.5681 247.055 27.1877ZM220.852 70.7653C220.786 71.1478 220.702 71.5267 220.6 71.9014C220.511 72.2334 220.405 72.5606 220.285 72.8824L220.274 72.9094C220.154 73.2258 220.015 73.5319 219.865 73.8302L219.792 73.9662C219.589 74.3415 219.359 74.7011 219.102 75.0415C218.87 75.3525 218.613 75.643 218.333 75.9118C218.248 75.9949 218.161 76.0754 218.072 76.1542C217.771 76.4141 217.45 76.6498 217.112 76.8585C216.713 77.1027 216.289 77.306 215.848 77.4648C214.601 77.9033 213.136 77.979 211.916 77.5219C211.766 77.4594 211.619 77.389 211.476 77.3108C211.416 77.2789 211.352 77.2519 211.294 77.2176C211.16 77.1352 211.031 77.045 210.908 76.9481C210.552 76.6799 210.249 76.3485 210.016 75.9696L210.014 75.9678C209.862 75.7116 209.589 75.5847 209.311 75.5726C209.128 75.5642 208.944 75.6069 208.784 75.6971C208.66 75.7651 208.56 75.8673 208.495 75.9924C208.43 76.1175 208.405 76.2583 208.421 76.3978L208.423 76.4279C208.607 78.5257 208.469 81.8199 207.27 84.1391C207.211 84.2491 207.148 84.358 207.084 84.4651C206.924 84.7399 206.74 85.0009 206.535 85.2445L206.518 85.268C205.899 86 205.055 86.5088 204.116 86.7169C204.016 86.7373 203.917 86.7578 203.813 86.7722C203.692 86.7897 203.57 86.8011 203.448 86.8065C203.356 86.8083 203.265 86.8065 203.173 86.8011C203.026 86.7927 202.88 86.7824 202.737 86.756C202.699 86.7494 202.662 86.7379 202.625 86.7307C202.035 86.5912 201.481 86.3271 201.002 85.9567C200.947 85.9152 200.897 85.8664 200.843 85.8219C200.739 85.7371 200.634 85.6535 200.537 85.5615C200.135 85.17 199.78 84.7339 199.479 84.2612C199.409 84.1523 199.337 84.0452 199.272 83.9346C199.162 83.7445 199.064 83.5533 198.97 83.3608C198.944 83.3073 198.915 83.2561 198.89 83.202C198.211 81.7345 197.984 80.1815 197.932 78.5691C198.765 78.5504 199.585 78.4367 200.386 78.2431C200.146 81.0031 201.656 83.7626 203.427 83.371C205.537 82.9043 206.32 79.1374 205.921 75.456C207.36 74.2988 208.614 72.9281 209.637 71.3926C210.579 69.981 211.385 68.4846 212.046 66.9232C212.21 66.9593 212.373 67.0026 212.533 67.0537C214.768 67.7851 215.57 70.3563 215.295 72.483C215.236 72.9431 215.731 73.3292 216.15 73.3346C216.661 73.3395 216.947 72.9371 217.005 72.483C217.377 69.6069 215.976 66.498 213.142 65.465C209.489 64.1334 205.818 66.4288 203.57 69.1714C202.88 70.0134 204.084 71.2248 204.78 70.3749C206.157 68.6951 208.084 67.1193 210.246 66.839C208.351 71.1123 205.019 75.2539 200.304 76.5656C199.15 76.8868 197.911 76.9638 196.687 76.8321C196.437 76.8008 196.186 76.7605 195.936 76.713C195.824 76.6925 195.712 76.6727 195.6 76.648C194.696 76.4447 193.823 76.1248 193.002 75.6965C192.925 75.6556 192.847 75.6153 192.771 75.572C192.454 75.3886 192.149 75.1853 191.859 74.964C191.818 74.9333 191.777 74.9044 191.736 74.8731C191.581 74.7498 191.444 74.6067 191.297 74.4726C190.834 74.0413 190.417 73.5632 190.054 73.0459C189.419 72.0818 188.989 70.998 188.79 69.8613C188.593 68.7245 188.632 67.5601 188.904 66.439C189.168 65.3756 187.519 64.9218 187.254 65.9869C186.643 68.4443 186.997 70.8356 188.05 72.8697C187.815 73.3773 187.454 73.8164 187 74.1448C186.546 74.4732 186.014 74.6795 185.457 74.7438C185.381 74.7505 185.307 74.7607 185.232 74.7631C185.148 74.7673 185.063 74.7685 184.979 74.7667C184.741 74.7565 184.504 74.7228 184.272 74.6644C184.088 74.6175 183.907 74.5544 183.734 74.4762C183.67 74.4479 183.61 74.4142 183.548 74.3818C183.389 74.2976 183.235 74.2031 183.091 74.0907C183.04 74.0504 182.991 74.0035 182.942 73.9602C182.832 73.8639 182.736 73.7545 182.637 73.6462C182.423 73.4134 182.235 73.1584 182.075 72.886C181.842 72.489 181.657 72.0662 181.521 71.6265C181.077 70.1867 181.052 68.5369 181.221 67.2161C181.234 67.1229 181.256 67.0315 181.272 66.9388C181.309 66.7223 181.347 66.504 181.396 66.3019C181.405 66.2652 181.419 66.2297 181.428 66.193C181.489 65.958 181.558 65.7255 181.64 65.4991C181.659 65.4463 181.684 65.396 181.704 65.3432C181.785 65.133 181.872 64.9252 181.972 64.7243C181.996 64.6775 182.024 64.6332 182.049 64.5864C182.154 64.3871 182.264 64.1904 182.388 64.0032C182.419 63.9546 182.457 63.9095 182.49 63.8618C182.612 63.6856 182.74 63.5127 182.879 63.3502C182.931 63.2888 182.99 63.2335 183.044 63.1748C183.174 63.0343 183.305 62.8964 183.445 62.7686C183.525 62.6979 183.612 62.635 183.695 62.5686C183.825 62.463 183.955 62.3574 184.095 62.2629C184.185 62.2016 184.284 62.1497 184.379 62.0935C184.531 62.0041 184.68 61.9121 184.841 61.8364C184.916 61.8006 184.99 61.7768 185.064 61.7453C185.247 61.6678 185.433 61.5928 185.628 61.5332C187.381 61.0215 189.106 61.563 190.66 62.6205C190.783 62.7073 190.906 62.7985 191.027 62.8913L191.102 62.9483C191.748 63.4581 192.349 64.0199 192.901 64.6281C192.91 64.6409 192.923 64.6503 192.933 64.663L193.005 64.7388C193.019 64.755 193.038 64.7643 193.055 64.7796C193.092 64.8103 193.123 64.8443 193.164 64.8699C194.343 66.2399 195.259 67.8572 195.715 69.5413C196.002 70.598 197.652 70.1506 197.365 69.0884C196.888 67.3316 195.899 65.4701 194.58 63.8669C194.617 63.7426 194.644 63.6158 194.689 63.494C194.732 63.3765 194.793 63.2658 194.842 63.1509C194.915 62.9832 194.983 62.8112 195.071 62.6503C195.123 62.5541 195.188 62.4664 195.245 62.3736C195.349 62.2033 195.448 62.0305 195.567 61.8704C195.619 61.7989 195.683 61.7376 195.739 61.6686C195.876 61.4984 196.012 61.3272 196.166 61.1731C196.214 61.1254 196.269 61.0871 196.319 61.0403C196.493 60.8777 196.669 60.7168 196.86 60.5754C196.913 60.5371 196.972 60.509 197.026 60.4724C197.224 60.337 197.425 60.2034 197.639 60.0944C197.731 60.0475 197.832 60.0178 197.927 59.976C198.113 59.8943 198.297 59.8066 198.494 59.7453C198.738 59.6695 198.993 59.6218 199.251 59.5818C199.308 59.5725 199.36 59.5529 199.417 59.5461C199.608 59.5222 199.781 59.5316 199.961 59.529C200.093 59.5274 200.234 59.5077 200.36 59.5171C200.656 59.5376 200.936 59.587 201.201 59.6636L201.208 59.6644C201.432 59.7326 201.651 59.8221 201.858 59.9318C201.89 59.9479 201.928 59.9564 201.96 59.9735C202.854 60.463 203.502 61.3119 203.903 62.3617C203.921 62.4111 203.948 62.4553 203.965 62.5055C204.064 62.7856 204.145 63.0794 204.209 63.3834C204.242 63.5512 204.333 63.7018 204.467 63.8082C204.847 64.1113 205.51 64.0449 205.771 63.5868C207.519 60.5329 211.108 58.7083 214.396 59.0548C216.706 59.5095 218.629 60.7133 219.78 62.6801C219.853 62.8078 219.929 62.9338 219.995 63.0658C220.075 63.2282 220.15 63.3935 220.218 63.5613C220.289 63.7282 220.36 63.8942 220.422 64.0644C220.489 64.256 220.548 64.451 220.605 64.6477C220.643 64.7796 220.682 64.9107 220.716 65.0436C220.77 65.259 220.813 65.4769 220.855 65.6958C220.884 65.8507 220.914 66.0048 220.936 66.1606C220.961 66.3223 220.979 66.4859 220.998 66.6495C221.025 66.9021 221.049 67.1553 221.062 67.4098L221.069 67.5661C221.106 68.6373 221.034 69.7091 220.852 70.7653ZM192.771 78.2046C192.633 78.4091 192.489 78.6105 192.34 78.8084C192.362 78.7784 192.422 78.7062 192.316 78.8391C192.03 79.2 191.711 79.5332 191.361 79.8339C191.336 79.8519 191.244 79.9253 191.22 79.9404C191.165 79.9764 191.108 80.0107 191.051 80.0426C191.024 80.057 190.89 80.1106 190.906 80.1118L190.779 80.146L190.764 80.1515C190.76 80.1515 190.764 80.1503 190.758 80.1503C190.727 80.1485 190.693 80.1491 190.661 80.1491C190.738 80.1262 190.691 80.14 190.637 80.1406C190.622 80.1316 190.607 80.1226 190.592 80.1142C190.589 80.1106 190.592 80.1124 190.589 80.1094C190.574 80.0913 190.557 80.0751 190.54 80.06C190.531 80.051 190.533 80.054 190.527 80.0498C190.512 80.0204 190.497 79.9897 190.489 79.977L190.452 79.9097C190.422 79.8586 190.417 79.7671 190.427 79.8682C190.44 79.9867 190.408 79.8122 190.391 79.7611C190.348 79.6276 190.313 79.4911 190.289 79.3533C190.283 79.3227 190.28 79.2884 190.271 79.2583V79.2571C190.229 78.8265 190.231 78.3928 190.277 77.9628L190.289 77.8563C190.324 77.617 190.37 77.3794 190.426 77.1448C190.501 76.8333 190.595 76.5271 190.708 76.2276L190.729 76.1741C191.235 76.5698 191.777 76.9193 192.347 77.2176C192.605 77.3583 192.873 77.487 193.145 77.6079C193.022 77.807 192.903 78.0097 192.771 78.2046ZM190.608 80.1412L190.602 80.131L190.619 80.1406L190.608 80.1412ZM184.38 76.9042C184.28 77.069 184.176 77.2302 184.067 77.389C184.013 77.4666 183.958 77.5412 183.902 77.6182L183.892 77.6296L183.91 77.6103L183.89 77.6344L183.892 77.6296L183.857 77.6741C183.731 77.8299 183.596 77.9778 183.451 78.1162C183.402 78.1601 183.353 78.2028 183.305 78.2455C183.268 78.2701 183.233 78.2966 183.195 78.3195C183.176 78.3303 183.134 78.3597 183.092 78.385L183.08 78.3868L183.021 78.4049L183.026 78.4121L183.023 78.4139C183.013 78.4133 183.003 78.4133 182.992 78.4151L182.99 78.4133L182.99 78.4139L182.984 78.4073L182.974 78.3958H182.978L182.937 78.3213C182.939 78.3303 182.943 78.3399 182.935 78.3393C182.924 78.3176 182.915 78.2948 182.91 78.2707L182.908 78.2695C182.876 78.219 182.888 78.2328 182.905 78.2593C182.903 78.2533 182.902 78.2479 182.9 78.2431C182.879 78.1745 182.856 78.1065 182.838 78.0368C182.822 77.9724 182.807 77.9075 182.795 77.8419C182.788 77.8058 182.778 77.7354 182.771 77.6921C182.733 77.3216 182.717 76.9506 182.725 76.5777C182.729 76.3509 182.754 76.1254 182.769 75.8998L182.836 75.9341C182.886 75.9594 182.927 75.9924 182.978 76.0165C183.004 76.0291 183.032 76.0345 183.059 76.046C183.278 76.1458 183.502 76.2276 183.729 76.2914C183.793 76.3094 183.856 76.3214 183.92 76.3365C184.109 76.3822 184.3 76.4159 184.493 76.4381C184.535 76.4429 184.577 76.4568 184.619 76.4598C184.538 76.6083 184.466 76.7605 184.38 76.9042ZM183.028 78.4512L183.013 78.4355C183.045 78.4464 183.064 78.4524 183.017 78.4355L183.003 78.4259C183.034 78.4325 183.038 78.4337 182.999 78.4217C182.998 78.4205 182.997 78.4199 182.996 78.4193L183.018 78.4157L183.013 78.4181L183.019 78.4157L183.028 78.4139C183.066 78.45 183.071 78.5071 183.028 78.4512ZM182.998 78.4301L183.004 78.4325C183.019 78.4488 183.029 78.4626 183.024 78.465C183.021 78.4668 183.011 78.4512 182.998 78.4301ZM182.986 78.4151C182.974 78.4061 182.961 78.3988 182.949 78.3934C182.956 78.391 182.96 78.3952 182.966 78.3952L182.986 78.4151ZM192.402 53.6663C193.403 52.9136 194.635 52.3602 195.701 51.955C196.049 51.823 196.339 51.5318 196.328 51.1342C196.254 48.8483 195.568 46.6234 194.343 44.6891C193.602 43.5295 192.289 41.8855 190.701 42.2848C191.114 41.6343 191.652 41.086 192.362 40.7216C194.545 39.602 196.462 41.4708 197.514 43.2315C199.357 46.3136 199.944 50.1491 200.066 53.6799C200.113 55.049 200.093 56.4512 199.954 57.8313C199.775 57.8331 199.602 57.8254 199.418 57.8433H199.417C199.104 57.8758 198.794 57.9291 198.489 58.0025C198.438 58.0144 198.388 58.0246 198.339 58.0374C198.145 58.0876 197.958 58.1574 197.771 58.2238C197.744 58.028 197.72 57.8271 197.697 57.6364C197.567 56.5142 197.428 55.3776 197.129 54.2852C197.027 53.9081 196.682 53.6808 196.305 53.6603C195.005 53.5904 193.702 53.5924 192.402 53.6663ZM208.288 53.3496C206.74 52.7868 205.04 52.5314 203.364 52.436C204.892 51.1478 206.996 50.3365 208.822 49.852C209.1 49.7779 209.354 49.5412 209.42 49.2569C209.901 47.176 210.096 41.3295 206.858 41.4044C207.747 41.0068 208.766 40.8416 209.93 41.0034C215.556 41.7816 214.823 50.2266 213.987 54.0971C213.751 55.1614 213.456 56.212 213.103 57.2439C211.691 57.2643 210.307 57.6372 209.041 58.2707L209.021 58.2792C208.691 58.4461 208.366 58.6282 208.053 58.8283L208.016 58.8522C208.498 57.3222 208.838 55.7488 208.916 54.1711C208.936 53.7753 208.632 53.4756 208.288 53.3496ZM190.505 39.9612C190.785 39.3244 191.121 38.7156 191.535 38.1503C193.495 35.4693 196.903 33.7494 200.036 32.8793C200.057 32.8742 200.078 32.8708 200.099 32.8648C200.744 36.0414 200.845 39.3857 200.668 42.6066C200.624 43.4188 201.909 43.8105 202.261 43.0365C204.125 38.9396 208.033 35.545 212.792 36.3658C216.784 37.0546 219.513 39.7272 220.273 43.664C221.001 47.4409 220.486 51.674 219.217 55.2797C218.831 56.3706 218.353 57.427 217.788 58.4375C216.874 57.9328 215.883 57.5846 214.854 57.4074C215.088 56.6862 215.305 55.9591 215.483 55.2218C216.334 51.6825 216.708 47.6818 215.531 44.1672C214.772 41.9025 213.189 39.9673 210.764 39.4317C208.288 38.8851 205.714 39.499 203.956 41.3482C202.478 42.9037 201.472 44.8969 200.857 47.0075C200.651 46.2608 200.424 45.526 200.152 44.8202C199.333 42.6849 198.069 40.3504 195.952 39.2435C194.161 38.3079 192.097 38.6007 190.57 39.8991C190.547 39.9187 190.527 39.9409 190.505 39.9612ZM248.994 27.8109C248.924 27.7082 248.833 27.6222 248.726 27.5589C248.871 26.6206 248.895 25.6543 248.776 24.6846C248.189 19.8826 244.304 16.3808 239.548 15.7227C237.314 15.4136 235.102 15.8061 233.193 16.8789C233.259 13.3473 231.242 10.1222 227.828 8.63818C223.922 6.94049 218.556 7.56371 215.955 11.0877C215.317 9.87612 214.523 8.79739 213.342 7.94344C210.847 6.14102 207.315 5.62932 204.339 6.2551C198.082 7.57052 194.717 14.7742 197.915 20.3492C199.308 22.7791 201.857 24.8353 204.699 25.1971L202.352 30.6725L202.284 30.6801C202.168 30.6972 202.051 30.7202 201.934 30.7389C201.617 30.7917 201.297 30.8351 200.979 30.9007C200.88 30.9211 200.779 30.95 200.679 30.9722C200.627 30.9832 200.576 30.99 200.524 31.0011C200.511 31.0037 200.503 31.0139 200.491 31.0173C196.97 31.8244 193.336 33.5527 190.903 36.2406C188.007 39.4419 187.501 43.9033 187.873 48.041C188.341 53.2252 190.553 57.7011 193.556 61.8576C193.448 62.0536 193.349 62.2541 193.259 62.4587C192.421 61.6789 191.497 61.0165 190.517 60.5303C189.374 59.9147 188.134 59.5299 186.836 59.5912C186.358 59.618 185.884 59.6948 185.423 59.8203C185.602 59.077 185.628 58.286 185.575 57.535C185.505 56.527 185.351 55.4551 185.005 54.5015C184.604 53.4041 183.923 52.3781 182.886 51.7856C181.84 51.1878 180.601 51.1504 179.47 51.5225C177.331 52.3125 176.585 54.533 176.758 56.6539C176.94 58.8777 178.066 61.1876 180.13 62.2552C180.501 62.4476 180.883 62.5575 181.263 62.6281C181.213 62.6937 181.156 62.755 181.107 62.8223C180.397 63.8133 179.952 64.9406 179.7 66.1163L179.685 66.1792C179.63 66.4456 179.585 66.7133 179.55 66.9833C179.54 67.0615 179.521 67.1379 179.511 67.2161C179.506 67.2666 179.505 67.3214 179.5 67.3719C179.488 67.4843 179.482 67.5962 179.475 67.7087C179.307 69.8649 179.643 72.3717 180.91 74.1899C180.988 74.3066 181.071 74.4209 181.157 74.5315C181.167 74.5442 181.175 74.5586 181.185 74.5718C181.096 75.2124 181.039 75.8577 181.016 76.5043C180.994 77.3686 181.033 78.2924 181.411 79.0857C181.793 79.8868 182.674 80.3042 183.535 80.0294C184.421 79.7455 185.059 78.9546 185.564 78.219C185.989 77.5989 186.326 76.9199 186.622 76.2252C187.579 75.9209 188.445 75.3531 189.054 74.5327C189.182 74.6927 189.323 74.8371 189.459 74.988C189.404 75.0416 189.346 75.0927 189.312 75.1685C188.91 76.0664 188.657 77.0227 188.563 78.0013C188.487 78.7778 188.51 79.6384 188.8 80.3722C189.118 81.1811 189.712 81.788 190.622 81.8494C191.514 81.9101 192.331 81.3147 192.927 80.7186C193.67 79.9771 194.267 79.0839 194.803 78.1841C195.274 78.311 195.744 78.4079 196.211 78.471C196.215 79.0135 196.258 79.5861 196.341 80.1779C196.544 81.9438 197.026 83.6453 198.039 85.1946C198.063 85.2301 198.092 85.2644 198.115 85.3011C199.288 87.1908 201.014 88.5471 203.325 88.5032C203.42 88.5032 203.512 88.517 203.609 88.5116C203.703 88.5068 203.787 88.4869 203.878 88.4773C203.909 88.4743 203.936 88.4773 203.965 88.4731C204.002 88.4689 204.033 88.4581 204.068 88.4527C205.355 88.2951 206.545 87.6936 207.432 86.7536L207.446 86.7391C207.602 86.5761 207.751 86.4077 207.892 86.2279C207.954 86.1497 208.012 86.0661 208.07 85.9855C208.148 85.8767 208.228 85.7702 208.3 85.6577C208.42 85.4737 208.532 85.283 208.639 85.0876L208.665 85.0424C209.694 83.1395 210.126 80.7409 210.188 78.5769C210.79 78.9684 211.462 79.2421 212.167 79.3828C212.257 79.4051 212.347 79.4219 212.437 79.44L212.455 79.4436C213.103 79.5771 213.769 79.609 214.427 79.5368C215.681 79.3942 216.828 78.9931 217.846 78.397C218.254 78.1721 218.63 77.9093 218.988 77.6296L219.033 77.7607C219.06 77.8359 219.089 77.9093 219.119 77.9826C219.156 78.0735 219.192 78.1631 219.233 78.2515C219.333 78.4758 219.449 78.6942 219.578 78.9035C219.667 79.0442 219.761 79.1807 219.863 79.3124C219.921 79.3852 219.983 79.455 220.045 79.5236C220.091 79.5747 220.138 79.6264 220.186 79.6739C220.254 79.7383 220.325 79.7996 220.398 79.858C220.448 79.9007 220.498 79.944 220.552 79.9825C220.63 80.0396 220.714 80.0877 220.799 80.1364C220.852 80.1677 220.904 80.2026 220.96 80.2309C221.057 80.2784 221.161 80.3163 221.264 80.3523C221.315 80.3716 221.363 80.3951 221.416 80.4107C221.58 80.46 221.749 80.4949 221.92 80.5153C222.131 80.5406 222.332 80.5424 222.528 80.5322C222.589 80.5292 222.647 80.5196 222.706 80.5129C222.9 80.4919 223.091 80.4534 223.279 80.3981C223.402 80.3596 223.522 80.3127 223.639 80.2597C223.688 80.2375 223.738 80.2188 223.785 80.1954C223.944 80.1136 224.098 80.0216 224.243 79.9151C224.255 79.9055 224.266 79.8946 224.279 79.885C224.411 79.7858 224.538 79.6757 224.659 79.5572C224.703 79.5139 224.746 79.467 224.789 79.4219C224.926 79.2794 225.054 79.1278 225.172 78.969C225.249 78.8662 225.323 78.7597 225.395 78.6497C225.432 78.5937 225.47 78.539 225.505 78.4818C225.604 78.3201 225.7 78.1553 225.789 77.9832C225.821 77.9225 225.849 77.8599 225.879 77.7986C225.937 77.6801 225.995 77.561 226.048 77.4389C226.089 77.3481 226.127 77.2561 226.166 77.1635C226.204 77.0702 226.242 76.977 226.278 76.8832C226.317 76.7791 226.356 76.6763 226.393 76.5716C226.577 76.0466 226.736 75.5137 226.871 74.9742C227.09 75.2178 227.332 75.4403 227.595 75.6376C227.731 75.7374 227.874 75.8264 228.024 75.904C228.128 75.9588 228.235 76.0057 228.344 76.0448C228.369 76.0532 228.392 76.064 228.417 76.0718C228.548 76.1145 228.682 76.1458 228.818 76.1615C228.834 76.1627 228.85 76.1615 228.865 76.1627C228.982 76.1729 229.1 76.1717 229.22 76.1596C229.261 76.156 229.303 76.1476 229.346 76.141C229.446 76.1236 229.548 76.0983 229.649 76.0634C229.692 76.0496 229.734 76.0369 229.777 76.0201C229.918 75.9618 230.061 75.892 230.205 75.7976C230.429 75.6502 230.624 75.471 230.802 75.2755C230.859 75.2154 230.907 75.148 230.958 75.0831C231.137 74.8641 231.291 74.6272 231.421 74.377C231.512 74.2013 231.594 74.0191 231.668 73.8308C231.699 73.7544 231.733 73.6811 231.761 73.6029C231.851 73.3449 231.931 73.079 231.997 72.8066C232.024 72.6995 232.042 72.5894 232.065 72.4812C232.1 72.311 232.135 72.1426 232.164 71.9712C232.207 71.7059 232.244 71.4395 232.273 71.1718C232.295 70.9806 232.314 70.7947 232.33 70.6083C232.629 70.7514 232.941 70.8747 233.254 70.9685L233.301 70.983C233.385 71.0076 233.467 71.0281 233.551 71.0479L233.673 71.075C233.748 71.09 233.822 71.1039 233.896 71.1159C233.946 71.1237 233.998 71.1285 234.049 71.1339C234.114 71.1412 234.18 71.1496 234.244 71.1532C234.351 71.1586 234.457 71.1586 234.56 71.1526C234.604 71.1496 234.646 71.1424 234.689 71.1369C234.801 71.1249 234.911 71.1039 235.019 71.0732C235.085 71.0545 235.148 71.0323 235.21 71.007C235.246 70.9914 235.283 70.977 235.318 70.9601C235.393 70.9216 235.464 70.8765 235.532 70.8266C235.548 70.8146 235.567 70.8061 235.582 70.7929C235.664 70.7268 235.74 70.6498 235.809 70.5632C235.829 70.5391 235.846 70.5102 235.865 70.4838C235.913 70.4158 235.957 70.3436 235.997 70.2642C236.058 70.1409 236.106 70.0122 236.143 69.8805C236.155 69.8384 236.168 69.7993 236.178 69.7554C236.211 69.6129 236.237 69.4625 236.25 69.2947C236.287 68.8436 236.293 68.3871 236.275 67.9288C236.269 67.77 236.246 67.6094 236.234 67.4495C236.211 67.1493 236.189 66.8492 236.147 66.5473C236.119 66.3512 236.077 66.1557 236.042 65.9597C235.994 65.6949 235.95 65.4301 235.89 65.1662C235.84 64.9457 235.779 64.7269 235.721 64.5072C235.658 64.2705 235.599 64.0338 235.529 63.798C235.457 63.5553 235.376 63.3161 235.297 63.0751C235.228 62.8691 235.162 62.6639 235.09 62.4604C234.994 62.1905 234.894 61.9257 234.791 61.6601C234.727 61.4966 234.665 61.3331 234.6 61.1706C234.436 60.7621 234.265 60.3563 234.088 59.9531C233.931 59.5912 233.773 59.2387 233.613 58.8913L233.61 58.8845C233.765 58.7279 233.913 58.5635 234.065 58.4052C234.929 57.5141 235.764 56.5958 236.569 55.6518C236.656 55.5488 236.746 55.4483 236.833 55.3452C237.293 54.7971 237.743 54.241 238.182 53.6774L238.348 53.4645C240.714 50.4097 242.802 47.1516 244.589 43.7287L244.621 43.6717C246.478 40.1426 248.322 36.2721 249.156 32.3097C249.24 31.9249 249.317 31.5401 249.38 31.1518L249.4 31.0139C249.415 30.9198 249.429 30.8248 249.441 30.7304C249.578 29.7547 249.668 28.561 248.994 27.8109Z" fill="black"/>
</g>
<defs>
<filter id="filter0_d_463_1224" x="-1.75421" y="0" width="403" height="103" filterUnits="userSpaceOnUse" color-interpolation-filters="sRGB">
<feFlood flood-opacity="0" result="BackgroundImageFix"/>
<feColorMatrix in="SourceAlpha" type="matrix" values="0 0 0 0 0 0 0 0 0 0 0 0 0 0 0 0 0 0 127 0" result="hardAlpha"/>
<feOffset dy="4"/>
<feGaussianBlur stdDeviation="5"/>
<feComposite in2="hardAlpha" operator="out"/>
<feColorMatrix type="matrix" values="0 0 0 0 0 0 0 0 0 0 0 0 0 0 0 0 0 0 0.25 0"/>
<feBlend mode="normal" in2="BackgroundImageFix" result="effect1_dropShadow_463_1224"/>
<feBlend mode="normal" in="SourceGraphic" in2="effect1_dropShadow_463_1224" result="shape"/>
</filter>
</defs>
</svg>
