<svg width="406" height="375" viewBox="0 0 406 375" fill="none" xmlns="http://www.w3.org/2000/svg">
<path d="M85.0579 120.499C81.0331 122.265 75.5313 122.277 71.7419 119.947C65.031 115.821 66.837 105.942 68.6789 99.6768C73.5309 83.1688 88.7485 69.9425 105.576 66.8357C110.026 66.0144 115.132 66.0418 119.134 68.432C122.842 70.6455 124.242 74.5205 123.981 78.7143C123.845 80.9176 127.256 80.909 127.392 78.7143C127.651 74.5513 126.485 70.378 123.43 67.4341C120.268 64.3873 115.856 63.1391 111.571 62.9642C102.141 62.5801 92.4084 66.9437 84.8038 72.2795C76.4011 78.1742 69.8079 86.3031 66.2896 96.0213C63.5063 103.71 61.134 115.386 68.2321 121.582C73.1983 125.92 80.9683 126.009 86.7787 123.46C88.786 122.579 87.0516 119.624 85.0579 120.499ZM283.298 92.8528C284.003 97.3467 286.083 102.436 290.394 104.548C294.561 106.588 298.889 104.851 301.497 101.249C302.791 99.4625 299.832 97.7496 298.552 99.5174C296.969 101.703 294.586 102.593 292.264 101.654C289.158 100.397 287.545 96.5426 286.852 93.3654C285.803 88.5543 286 82.9271 287.915 78.344C289.054 75.6195 291.167 72.919 293.916 72.1509C296.341 71.4736 298.446 72.4647 299.641 74.9645C300.591 76.9535 303.533 75.2166 302.587 73.2345C301.113 70.15 297.958 68.1988 294.53 68.5674C290.516 68.9978 287.333 71.9966 285.515 75.4704C282.778 80.6981 282.396 87.1089 283.298 92.8528ZM161.719 145.914L161.733 145.928C161.75 145.921 161.77 145.916 161.791 145.911C161.769 145.893 161.738 145.895 161.707 145.892L161.719 145.914ZM161.569 145.64C161.588 145.673 161.606 145.708 161.624 145.743C161.61 145.698 161.589 145.656 161.562 145.617C161.564 145.625 161.566 145.632 161.569 145.64ZM190.122 177.243C190.101 177.246 190.086 177.253 190.057 177.253C190.082 177.255 190.099 177.248 190.122 177.243ZM237.548 248.305C229.911 252.947 220.763 255.066 212.016 256.301C203.056 257.564 193.718 257.763 184.853 255.711C179.399 254.447 173.766 252.342 169.501 248.576C162.514 241.042 163.17 229.807 169.738 222.216C178.197 212.443 192.973 208.971 205.339 209.083C207.534 209.103 207.536 205.674 205.339 205.653C194.134 205.552 181.727 208.265 172.554 215.043C169.416 217.362 166.687 220.251 164.67 223.526C159.853 223.031 155.389 220.723 151.811 217.506C150.529 216.355 149.343 215.1 148.265 213.755L148.111 213.559L147.948 213.345C147.816 213.165 147.683 212.987 147.555 212.803C147.448 212.649 147.341 212.493 147.24 212.333C146.07 210.473 143.116 212.193 144.295 214.065C147.231 218.734 151.967 222.731 156.968 224.936C158.889 225.786 160.909 226.391 162.979 226.736C161.388 230.374 160.675 234.374 161.196 238.543C161.627 241.997 162.886 245.209 164.784 248.047C164.207 248.065 163.631 248.076 163.056 248.107C160.832 248.203 158.611 248.353 156.395 248.556C151.07 249.058 145.656 249.811 140.497 251.332L140.466 251.321C128.678 246.985 118.191 238.834 113.402 226.87C112.497 224.613 110.428 219.014 111.852 216.025C112.287 217.141 112.782 218.239 113.297 219.298C115.355 223.537 118.161 227.47 121.575 230.709C124.062 233.072 126.875 235.062 129.926 236.619C131.881 237.615 133.608 234.657 131.649 233.659C126.921 231.254 122.835 227.746 119.731 223.429C118.539 221.768 117.476 220.017 116.552 218.192C115.802 216.711 115.396 215.788 114.879 214.362C114.658 213.746 114.439 213.124 114.277 212.49C112.95 207.344 112.51 202.079 114.564 197.038C116.532 192.204 120.267 188.17 125.09 186.176C136.535 181.445 149.259 187.702 158.175 194.84L158.521 195.107C160.053 196.268 162.103 193.627 160.587 192.415C160.461 192.314 160.329 192.216 160.203 192.115C157.78 190.263 148.903 181.848 154.202 178.92C156.935 177.409 160.706 178.213 163.668 178.493C166.851 178.795 170.032 179.12 173.21 179.467L179.793 180.178C178.42 183.717 177.264 187.403 177.015 191.186C176.824 194.083 177.37 197.269 179.519 199.382C181.862 201.681 185.256 201.811 188.102 200.417C193.048 197.996 195.42 192.357 197.917 187.789C198.858 186.068 199.803 184.35 200.748 182.63C207.377 183.499 213.987 184.487 220.535 185.721C223.023 186.19 228.434 187.251 227.184 190.942C226.103 194.128 222.509 196.422 219.731 197.922C218.063 198.821 219.209 201.749 221.045 201.055C228.325 198.303 239.576 198.493 242.748 207.311C245.836 215.89 237.761 224.6 230.042 226.626C223.567 228.372 216.165 227.912 209.731 226.076C207.614 225.472 206.712 228.78 208.823 229.383C211.225 230.067 213.73 230.45 216.204 230.741C221.072 231.312 226.084 231.223 230.842 229.958C236.317 229.354 244.411 230.03 245.567 236.794C246.442 241.915 241.368 245.984 237.548 248.305ZM244.245 269.448C243.621 270.013 242.946 270.519 242.229 270.958C238.883 273.016 235.012 274.161 231.233 275.103C224.648 276.742 217.889 277.635 211.148 278.307C197.109 279.705 182.925 279.953 168.86 278.765C159.754 277.997 150.492 276.747 141.743 273.998C139.929 273.429 137.676 272.695 135.616 271.648C135.6 271.581 135.614 271.523 135.59 271.452C135.445 271.029 135.454 271.13 135.479 270.883C135.471 270.967 135.546 270.641 135.527 270.686C135.754 270.182 136.018 269.931 136.508 269.553C138.01 268.387 139.975 267.79 141.784 267.327C147.497 265.864 153.591 265.933 159.405 266.677C159.576 266.695 159.748 266.676 159.911 266.621C160.727 267.238 161.567 267.792 162.396 268.26C168.623 271.766 175.994 273.222 182.991 274.285C203.287 277.369 224.597 275.531 244.245 269.448ZM133.571 258.01C133.723 257.904 133.869 257.787 134.026 257.689C138.254 255.078 143.401 253.945 148.227 253.079C150.832 252.612 153.458 252.29 156.093 252.031C155.614 252.575 155.213 253.182 154.901 253.837C154.725 254.224 154.578 254.623 154.461 255.032C148.761 254.581 143.026 255.133 137.516 256.664C136.176 257.036 134.859 257.485 133.571 258.01ZM132.324 269.441C131.272 268.479 130.452 267.348 130.059 265.993C130.035 265.916 130.037 265.84 130.017 265.762L130.02 265.741C129.937 264.344 131.212 263.236 132.493 262.432C134.657 261.072 137.135 260.272 139.598 259.661C144.322 258.488 149.341 258.044 154.242 258.43C154.49 260.035 155.213 261.549 156.212 262.924C150.559 262.47 144.673 262.742 139.305 264.472C136.898 265.249 133.339 266.866 132.324 269.441ZM126.531 264.119C124.174 262.022 122.052 259.62 120.088 257.208C115.434 251.491 111.363 245.284 107.502 239.007C100.206 227.149 93.8137 214.665 88.8218 201.646C85.7691 193.681 82.8818 185.298 81.763 176.795C81.5788 175.398 81.3912 173.682 81.3964 171.936C81.4475 171.892 81.5055 171.878 81.555 171.825C81.6095 171.766 81.763 171.646 81.7903 171.616L81.8483 171.583C81.8636 171.583 82.0444 171.504 82.1263 171.477L82.4162 171.482C82.4657 171.49 82.6771 171.511 82.7522 171.532C82.9278 171.581 83.1001 171.634 83.2723 171.693L83.3474 171.715L83.4037 171.744C85.1603 172.583 86.4427 173.838 87.7798 175.328C91.7006 179.698 94.4702 185.202 96.4315 190.707C96.5236 190.963 96.672 191.181 96.8442 191.373C96.4724 193.66 96.4366 196.006 96.5799 198.041C97.0676 204.92 99.1295 211.787 101.437 218.251C104.378 226.445 108.11 234.331 112.577 241.795C116.783 248.83 121.561 255.503 126.862 261.746C126.661 262.522 126.55 263.318 126.531 264.119ZM84.0108 164.282C84.0449 164.265 84.079 164.267 84.1131 164.246C84.5207 164.001 85.0972 163.91 85.5235 163.975C86.453 164.116 87.2102 164.488 88.0135 164.961C90.2186 166.261 92.0707 168.14 93.7403 170.064C96.9849 173.815 99.6083 178.066 101.51 182.654C100.151 183.594 99.1346 184.886 98.3842 186.375C96.718 182.4 94.6544 178.584 92.0417 175.163C89.9457 172.42 87.13 169.033 83.5947 168.21C83.0095 168.082 82.4069 168.054 81.8125 168.128C82.1894 166.609 82.8699 165.253 84.0108 164.282ZM93.8443 164.778C97.9715 167.6 101.299 171.765 104.217 175.773C105.543 177.614 106.812 179.494 108.023 181.413C106.874 181.2 105.716 181.152 104.653 181.349C102.455 176.044 99.3606 171.16 95.5072 166.914C94.5712 165.88 93.5752 164.902 92.5243 163.986C92.9781 164.226 93.4187 164.49 93.8443 164.778ZM190.065 177.229L190.122 177.243C190.137 177.239 190.162 177.241 190.171 177.234C190.159 177.243 190.137 177.239 190.122 177.243C190.191 177.258 190.263 177.274 190.333 177.293C190.417 177.317 190.502 177.351 190.585 177.375C190.664 177.421 190.746 177.466 190.826 177.51C190.865 177.533 190.905 177.552 190.947 177.569C191.026 177.649 191.099 177.735 191.164 177.828L191.145 177.798C191.151 177.808 191.157 177.818 191.164 177.828L191.206 177.896C191.257 177.987 191.305 178.092 191.363 178.177C191.37 178.188 191.366 178.177 191.37 178.184L191.38 178.22C191.423 178.356 191.465 178.488 191.499 178.625C191.528 178.741 191.542 178.867 191.573 178.981C191.603 179.388 191.608 179.795 191.588 180.202C191.576 180.383 191.56 180.563 191.54 180.742L191.493 181.032C191.404 181.53 191.293 182.024 191.16 182.512C190.602 184.574 189.796 186.628 188.609 188.41C187.835 189.572 187.062 190.337 185.814 190.963C185.647 191.026 185.477 191.08 185.304 191.124C185.218 191.145 185.128 191.16 185.041 191.177C184.986 191.183 184.931 191.187 184.876 191.188C184.76 191.189 184.642 191.188 184.526 191.186L184.48 191.188C184.282 191.131 184.072 191.062 183.871 191.014L183.845 190.997L183.528 190.807L183.525 190.805C183.455 190.719 183.351 190.647 183.274 190.567C183.201 190.488 183.136 190.397 183.059 190.32L183.213 190.474C183.155 190.414 183.102 190.348 183.054 190.279C182.994 190.183 182.948 190.08 182.89 189.982C182.877 189.962 182.88 189.972 182.872 189.958L182.867 189.939C182.795 189.694 182.737 189.449 182.67 189.202V189.173C182.664 188.95 182.65 188.729 182.65 188.506C182.645 187.477 182.735 186.639 182.93 185.716C183.387 183.554 184.176 181.646 185.498 179.849C185.902 179.327 186.352 178.843 186.842 178.402C186.927 178.326 187.012 178.253 187.099 178.182C187.134 178.153 187.127 178.157 187.134 178.15L187.214 178.098C187.543 177.877 187.877 177.677 188.232 177.502C188.286 177.486 188.6 177.361 188.667 177.341C188.757 177.315 189.081 177.248 189.117 177.233C189.26 177.219 189.402 177.205 189.543 177.203C189.632 177.202 189.896 177.251 190.057 177.253C189.934 177.241 189.815 177.167 190.065 177.229ZM180.389 192.317C180.738 192.822 181.146 193.295 181.695 193.687C184.505 195.7 188.143 194.166 190.229 191.86C191.946 189.96 193.024 187.614 193.88 185.221C194.58 183.263 195.171 181.077 194.984 178.975C194.829 177.234 194.143 175.602 192.647 174.614C191.597 173.92 190.241 173.673 189.003 173.81C187.802 173.98 186.654 174.413 185.64 175.081C186.817 172.528 188.07 170.011 189.395 167.533C190.521 165.426 191.713 163.35 192.913 161.278C195.193 164.287 198.302 166.323 202.283 166.245C202.474 166.245 202.658 166.275 202.853 166.263C203.038 166.252 203.206 166.213 203.386 166.194C203.448 166.187 203.502 166.194 203.564 166.185C203.634 166.177 203.697 166.156 203.767 166.146C204.794 166.002 205.797 165.715 206.746 165.294C201.732 173.529 197.199 182.059 192.543 190.497C190.928 193.425 187.73 198.793 183.569 197.854C181.129 197.303 180.409 194.57 180.387 192.386C180.387 192.364 180.39 192.34 180.389 192.317ZM176.947 149.407H176.923L176.911 149.386L176.947 149.407ZM176.979 149.405C176.952 149.386 176.921 149.369 176.891 149.352C176.886 149.345 176.891 149.348 176.884 149.341C176.854 149.306 176.822 149.273 176.788 149.242L176.763 149.221L176.686 149.077L176.611 148.942C176.553 148.839 176.541 148.652 176.563 148.856C176.587 149.095 176.524 148.743 176.492 148.642C176.404 148.373 176.336 148.098 176.285 147.819C176.273 147.757 176.27 147.69 176.253 147.63L176.251 147.627C176.166 146.759 176.169 145.886 176.261 145.019L176.285 144.808L176.313 144.625C176.477 143.566 176.749 142.527 177.124 141.525C177.136 141.489 177.152 141.454 177.165 141.418C178.175 142.216 179.255 142.92 180.392 143.52C180.907 143.803 181.441 144.061 181.983 144.304C181.738 144.707 181.501 145.115 181.238 145.506C181.01 145.847 180.776 146.182 180.534 146.512L180.377 146.722C180.222 146.92 180.064 147.116 179.901 147.308C179.445 147.837 178.952 148.332 178.426 148.789C178.373 148.825 178.19 148.971 178.143 149.002C178.033 149.075 177.921 149.143 177.807 149.208C177.754 149.237 177.482 149.347 177.518 149.347C177.434 149.37 177.349 149.394 177.264 149.417C177.242 149.422 177.251 149.424 177.234 149.427C177.225 149.427 177.235 149.425 177.223 149.424L177.029 149.422C177.184 149.376 177.09 149.403 176.979 149.405ZM173.524 121.814C174.053 119.671 170.763 118.757 170.236 120.902C169.017 125.85 169.723 130.668 171.82 134.762C171.353 135.785 170.632 136.669 169.727 137.33C168.821 137.991 167.761 138.406 166.65 138.536C166.499 138.55 166.351 138.572 166.201 138.576C165.557 138.61 164.912 138.544 164.289 138.378C163.92 138.284 163.56 138.157 163.213 137.999C163.089 137.941 162.966 137.874 162.843 137.807C162.524 137.64 162.22 137.445 161.934 137.224C161.832 137.142 161.734 137.048 161.634 136.959C161.414 136.765 161.223 136.544 161.027 136.328C160.6 135.859 160.225 135.346 159.906 134.797C159.556 134.185 159.255 133.546 159.009 132.885C158.934 132.679 158.869 132.47 158.803 132.261C157.914 129.36 157.865 126.037 158.204 123.378C158.228 123.191 158.274 123.007 158.303 122.82C158.38 122.383 158.453 121.944 158.552 121.538C158.571 121.462 158.596 121.39 158.615 121.315C158.738 120.843 158.874 120.375 159.038 119.919C159.076 119.813 159.125 119.71 159.166 119.604C159.33 119.182 159.502 118.764 159.7 118.361C159.748 118.265 159.806 118.175 159.853 118.079C160.063 117.678 160.283 117.284 160.529 116.907C160.592 116.809 160.667 116.72 160.733 116.624C160.977 116.267 161.231 115.919 161.509 115.592C161.613 115.468 161.729 115.358 161.839 115.238C162.096 114.957 162.357 114.678 162.64 114.422C162.797 114.28 162.969 114.153 163.135 114.019C163.396 113.807 163.655 113.592 163.933 113.402C164.114 113.28 164.311 113.176 164.499 113.063C164.801 112.881 165.101 112.697 165.423 112.543C165.57 112.471 165.717 112.425 165.865 112.361C166.232 112.205 166.602 112.054 166.992 111.934C170.487 110.902 173.928 111.994 177.027 114.124C177.273 114.297 177.513 114.477 177.752 114.662L177.914 114.786C179.222 115.814 180.424 116.989 181.495 118.165C181.514 118.193 181.541 118.21 181.562 118.235L181.702 118.388C181.732 118.422 181.772 118.441 181.804 118.47C181.876 118.534 181.939 118.602 182.021 118.654C184.371 121.411 186.197 124.669 187.108 128.06C187.681 130.19 190.973 129.286 190.398 127.15C189.446 123.611 187.475 119.861 184.843 116.634C184.918 116.384 184.973 116.127 185.061 115.881C185.148 115.645 185.268 115.424 185.367 115.192C185.513 114.853 185.648 114.508 185.822 114.182C185.928 113.988 186.059 113.812 186.172 113.623C186.378 113.28 186.576 112.934 186.811 112.613C186.915 112.471 187.04 112.349 187.149 112.214C187.425 111.868 187.698 111.521 188.008 111.207C188.104 111.111 188.217 111.033 188.315 110.938C188.662 110.612 189.01 110.288 189.392 110.005C189.501 109.923 189.627 109.865 189.739 109.786C190.128 109.519 190.522 109.253 190.944 109.035C191.126 108.942 191.327 108.884 191.515 108.8C191.888 108.634 192.255 108.457 192.649 108.334C193.115 108.188 193.604 108.099 194.095 108.017C194.23 107.996 194.354 107.948 194.491 107.931C194.866 107.885 195.207 107.903 195.56 107.898C195.83 107.893 196.114 107.854 196.372 107.873C198.158 107.998 199.658 108.656 200.861 109.705L200.864 109.707C201.205 110.005 201.509 110.35 201.802 110.708C201.853 110.77 201.916 110.82 201.967 110.883C202.179 111.158 202.353 111.471 202.537 111.773C202.645 111.95 202.769 112.104 202.868 112.289C202.958 112.462 203.021 112.658 203.105 112.838C203.526 113.739 203.842 114.686 204.046 115.66C204.348 117.126 206.466 117.299 207.164 116.07C210.65 109.92 217.808 106.244 224.365 106.942C228.971 107.859 232.805 110.283 235.102 114.242C235.246 114.499 235.399 114.753 235.529 115.017C235.691 115.34 235.834 115.679 235.976 116.02C236.117 116.355 236.259 116.687 236.38 117.03C236.515 117.416 236.632 117.809 236.746 118.205C236.823 118.47 236.9 118.734 236.966 119.004C237.074 119.436 237.163 119.875 237.244 120.315C237.302 120.627 237.362 120.938 237.408 121.253C237.456 121.577 237.492 121.905 237.529 122.232C237.582 122.745 237.633 123.256 237.657 123.77C237.664 123.873 237.666 123.978 237.671 124.08C237.746 126.237 237.601 128.396 237.239 130.524C237.121 131.217 236.973 131.905 236.796 132.585L236.736 132.813C236.558 133.481 236.348 134.14 236.107 134.788L236.086 134.845C235.846 135.476 235.573 136.095 235.27 136.698L235.126 136.969C234.722 137.725 234.262 138.45 233.75 139.136C233.562 139.388 233.367 139.635 233.165 139.875C232.709 140.41 232.217 140.913 231.692 141.379C231.366 141.665 231.028 141.935 230.677 142.188C230.17 142.564 229.636 142.901 229.079 143.196C228.493 143.514 227.885 143.787 227.259 144.016C224.771 144.899 221.848 145.053 219.416 144.131C219.121 144.007 218.832 143.867 218.551 143.712C218.427 143.647 218.299 143.591 218.178 143.519C217.91 143.353 217.653 143.171 217.407 142.975C217.072 142.718 216.759 142.432 216.472 142.121C216.154 141.778 215.871 141.403 215.626 141.003C215.229 140.33 214.427 140.107 213.726 140.254C213.355 140.322 213.017 140.513 212.765 140.796C212.643 140.944 212.551 141.115 212.497 141.299C212.442 141.483 212.426 141.677 212.447 141.868C212.821 146.091 212.555 152.767 210.152 157.458C210.036 157.681 209.91 157.895 209.784 158.11C209.678 158.29 209.572 158.47 209.459 158.643C209.223 159.005 208.965 159.352 208.689 159.684L208.651 159.732C207.279 161.366 205.361 162.443 203.257 162.76C203.016 162.797 202.774 162.82 202.53 162.828C202.347 162.833 202.164 162.829 201.981 162.818C201.689 162.808 201.399 162.777 201.111 162.727C201.036 162.713 200.963 162.693 200.888 162.676C199.711 162.396 198.607 161.864 197.653 161.117C197.547 161.037 197.451 160.946 197.349 160.86C197.136 160.685 196.923 160.512 196.723 160.322C195.925 159.537 195.22 158.663 194.622 157.715C194.481 157.493 194.332 157.271 194.201 157.043C193.983 156.664 193.788 156.282 193.602 155.896C193.549 155.787 193.491 155.68 193.44 155.571C192.086 152.615 191.633 149.489 191.53 146.24C193.191 146.204 194.827 145.974 196.425 145.585C195.944 151.142 198.956 156.7 202.488 155.912C206.697 154.97 208.257 147.385 207.462 139.971C210.334 137.641 212.833 134.881 214.873 131.789C216.75 128.946 218.358 125.932 219.677 122.788C219.999 122.861 220.323 122.942 220.647 123.05C225.105 124.523 226.703 129.703 226.157 133.984C226.038 134.91 227.025 135.69 227.863 135.699C228.881 135.709 229.451 134.898 229.568 133.984C230.307 128.192 227.515 121.93 221.861 119.851C214.577 117.171 207.256 121.792 202.776 127.314C201.4 129.01 203.797 131.451 205.187 129.739C207.931 126.356 211.777 123.184 216.087 122.62C212.309 131.223 205.663 139.563 196.259 142.205C193.957 142.853 191.486 143.009 189.047 142.744C188.551 142.68 188.055 142.6 187.558 142.504C187.331 142.463 187.105 142.423 186.878 142.373C185.578 142.078 184.297 141.657 183.071 141.122C182.604 140.913 182.142 140.698 181.695 140.453C181.541 140.372 181.388 140.294 181.238 140.208C180.605 139.836 179.998 139.426 179.416 138.982C179.336 138.918 179.253 138.86 179.173 138.797C178.862 138.55 178.589 138.262 178.298 137.993C177.375 137.123 176.544 136.16 175.818 135.119C174.55 133.177 173.693 130.994 173.298 128.706C172.904 126.417 172.981 124.071 173.524 121.814ZM164.502 142.888C164.304 143.219 164.096 143.544 163.878 143.863C163.771 144.019 163.66 144.172 163.549 144.325L163.532 144.349L163.564 144.309C163.551 144.324 163.539 144.34 163.527 144.355L163.532 144.349C163.476 144.417 163.454 144.443 163.46 144.438L163.35 144.573C163.13 144.838 162.896 145.09 162.649 145.328C162.555 145.418 162.456 145.502 162.359 145.588C162.285 145.64 162.214 145.691 162.139 145.737C162.101 145.761 162.018 145.82 161.934 145.869L161.912 145.875C161.873 145.883 161.832 145.897 161.791 145.911L161.803 145.924L161.796 145.928C161.786 145.928 161.781 145.926 161.734 145.929L161.733 145.928H161.728L161.719 145.914L161.697 145.892H161.707L161.624 145.743C161.629 145.76 161.636 145.78 161.622 145.777C161.613 145.775 161.588 145.696 161.569 145.64L161.567 145.638C161.503 145.535 161.526 145.564 161.562 145.617C161.559 145.606 161.555 145.595 161.55 145.585C161.509 145.446 161.465 145.309 161.429 145.17C161.371 144.941 161.326 144.709 161.294 144.475C161.218 143.728 161.187 142.98 161.202 142.229C161.211 141.773 161.26 141.321 161.291 140.866L161.426 140.935C161.523 140.985 161.605 141.053 161.705 141.101C161.758 141.125 161.815 141.135 161.867 141.159C162.306 141.36 162.751 141.525 163.205 141.655C163.331 141.691 163.459 141.715 163.585 141.746C163.961 141.837 164.342 141.905 164.726 141.95C164.811 141.958 164.895 141.986 164.978 141.994C164.818 142.291 164.676 142.598 164.502 142.888ZM161.801 145.928L161.804 145.926L161.806 145.928H161.801ZM161.806 146.003L161.775 145.971C161.84 145.995 161.879 146.007 161.784 145.971L161.757 145.953C161.818 145.969 161.827 145.967 161.748 145.945L161.743 145.938L161.786 145.931L161.775 145.936L161.789 145.931L161.808 145.929C161.881 146.001 161.891 146.116 161.806 146.003ZM161.746 145.96L161.758 145.965C161.789 145.998 161.81 146.025 161.798 146.032C161.792 146.034 161.772 146.003 161.746 145.96ZM161.723 145.929C161.7 145.913 161.675 145.898 161.649 145.887C161.663 145.881 161.671 145.892 161.685 145.89L161.723 145.929ZM180.499 96.0899C182.496 94.5742 184.952 93.4598 187.079 92.6436C187.773 92.3779 188.355 91.7932 188.331 90.9907C188.183 86.3871 186.816 81.9065 184.371 78.0114C182.894 75.6761 180.274 72.3652 177.109 73.1694C177.933 71.8611 179.007 70.7552 180.421 70.0231C184.777 67.7667 188.599 71.5302 190.696 75.076C194.373 81.2845 195.541 89.0087 195.785 96.1191C195.881 98.8744 195.838 101.698 195.56 104.479C195.207 104.483 194.859 104.466 194.493 104.502H194.489C193.866 104.567 193.248 104.675 192.639 104.824C192.54 104.848 192.439 104.867 192.34 104.893C191.953 104.994 191.581 105.136 191.208 105.268C191.155 104.874 191.106 104.471 191.061 104.087C190.804 101.825 190.524 99.538 189.93 97.3364C189.724 96.5769 189.039 96.1191 188.285 96.0779C185.691 95.9379 183.092 95.9419 180.499 96.0899ZM212.183 95.4538C209.095 94.3188 205.706 93.8044 202.363 93.6141C205.411 91.0182 209.606 89.3842 213.249 88.4086C213.803 88.2611 214.308 87.7828 214.439 87.2118C215.4 83.0197 215.79 71.2456 209.33 71.3982C211.104 70.5958 213.135 70.2649 215.457 70.5889C226.676 72.1561 225.214 89.1647 223.548 96.9575C223.077 99.1015 222.488 101.218 221.785 103.296C218.971 103.337 216.211 104.088 213.684 105.362C213.008 105.702 212.35 106.077 211.712 106.485L211.639 106.535C212.603 103.452 213.278 100.284 213.435 97.1067C213.476 96.3111 212.869 95.7059 212.183 95.4538ZM176.717 68.4903C177.274 67.2095 177.946 65.9818 178.772 64.8434C182.681 59.4441 189.477 55.9807 195.726 54.2301C195.767 54.2181 195.809 54.2112 195.85 54.1992C197.136 60.5963 197.337 67.3312 196.986 73.8192C196.897 75.4532 199.462 76.2436 200.163 74.6833C203.879 66.4345 211.675 59.5984 221.164 61.2513C229.125 62.6367 234.57 68.0188 236.083 75.9487C237.534 83.5529 236.509 92.0778 233.979 99.3408C233.208 101.537 232.254 103.664 231.127 105.698C229.306 104.681 227.328 103.981 225.276 103.626C225.743 102.172 226.176 100.709 226.531 99.2242C228.228 92.0949 228.975 84.0398 226.626 76.962C225.115 72.4012 221.955 68.504 217.12 67.4255C212.185 66.3248 207.05 67.5593 203.543 71.2833C200.595 74.4159 198.589 78.4314 197.364 82.6819C196.966 81.1913 196.496 79.7208 195.958 78.2754C194.322 73.9752 191.803 69.2738 187.58 67.0449C184.009 65.1606 179.892 65.7521 176.846 68.3668C176.8 68.4063 176.761 68.4508 176.717 68.4903ZM209.026 38.0016C209.49 36.9077 208.985 35.3405 207.555 35.4228C202.665 35.7023 198.11 32.6435 195.369 28.7377C192.216 24.2437 191.563 18.6593 193.577 13.543C197.528 3.50072 210.585 0.892846 219.342 6.17548C222.542 8.1061 224.285 11.1049 225.663 14.4741C226.144 15.6468 228.117 16.3995 228.78 14.8821C232.287 6.86304 242.685 5.24788 249.993 8.62561C256.405 11.5901 259.726 18.2633 258.047 25.1731C257.631 26.8825 259.635 27.973 260.897 26.8413C269.175 19.4275 283.805 23.0641 288.229 33.151C289.549 36.1711 289.988 39.5066 289.494 42.7681C286.733 42.9704 284.026 44.8925 281.982 46.4733C281.835 46.5865 281.7 46.7168 281.555 46.8316C280.745 47.4729 279.952 48.1365 279.181 48.8274C278.971 49.0143 278.758 49.1943 278.552 49.3847C277.68 50.1855 276.828 51.0082 275.997 51.852C275.416 52.4418 274.853 53.0487 274.288 53.654C274.148 53.8032 274.004 53.9472 273.865 54.0981C273.906 53.6763 273.969 53.2528 274.002 52.831C274.235 49.7722 274.474 45.604 272.349 43.0956C271.12 41.6416 269.627 41.2404 268.036 41.5027L267.859 41.5353C267.107 41.6946 266.38 41.9529 265.696 42.3035C265.331 42.4853 264.975 42.6833 264.627 42.8967C263.844 43.3824 263.093 43.919 262.379 44.5033C261.971 44.8358 261.571 45.1788 261.18 45.532C260.502 46.1467 259.845 46.7837 259.209 47.442C258.778 47.8831 258.357 48.3324 257.943 48.7897C257.77 48.9817 257.598 49.1743 257.427 49.3675C256.545 50.3637 255.817 51.2467 255.31 51.8588C254.493 52.8446 253.699 53.8496 252.929 54.873C252.276 55.7426 251.641 56.6264 251.026 57.5238C250.946 57.6387 250.861 57.7518 250.781 57.8684C249.38 59.911 248.101 62.0344 246.948 64.2278C243.502 61.3262 239.771 58.7857 235.812 56.6459L235.793 56.6339C234.807 56.1014 233.807 55.5943 232.795 55.1131L232.778 55.1062C223.858 50.8661 213.994 48.7023 204.193 49.3864L209.026 38.0016ZM295.97 62.683C304.819 63.2865 309.153 73.0185 310.004 80.7633C310.962 89.4888 308.752 99.5739 302.587 106.055C301.306 107.401 298.5 108.792 298.175 110.628C297.701 113.284 297.881 116.219 297.81 118.916C297.67 124.231 297.699 129.55 297.776 134.867C293.747 135.092 289.695 136.06 286.175 137.669C285.655 136.933 285.068 136.28 284.437 135.693C284.983 127.11 285.687 118.534 286.745 110C286.772 109.838 286.772 109.672 286.743 109.51C286.721 108.965 286.458 108.588 286.064 108.382C279.11 101.669 276.437 90.5312 278.455 81.1971C280.239 72.9431 286.139 62.0143 295.97 62.683ZM303.149 138.512C304.954 138.738 307.121 139.1 308.469 140.439C310.955 142.915 310.899 146.42 308.266 148.606C303.138 152.34 295.746 154.005 289.516 152.299C289.622 148.385 289.064 144.395 287.703 140.715C292.432 138.572 298.069 137.874 303.149 138.512ZM309.217 162.501C304.867 165.676 299.478 167.194 294.112 166.82C292.705 166.722 291.15 166.472 289.782 165.899C289.588 165.814 289.396 165.723 289.208 165.625C288.874 165.458 288.556 165.262 288.256 165.04C288.102 164.925 287.956 164.804 287.818 164.673L287.778 164.637C287.729 164.589 287.69 164.534 287.642 164.485C287.359 164.152 287.138 163.77 286.99 163.358C286.952 163.21 286.929 163.058 286.924 162.905C288.215 160.79 288.907 158.304 289.242 155.804C292.088 156.467 295.136 156.474 297.989 156.111C302.041 155.595 305.991 154.29 309.385 151.99C313.273 154.688 312.876 159.442 309.217 162.501ZM310.215 175.688C305.216 179.305 298.282 180.989 292.226 179.602C291.421 179.419 290.616 179.139 289.871 178.764C288.935 178.254 288.084 177.603 287.48 176.77L287.427 176.686C287.303 176.506 287.188 176.317 287.088 176.12C286.982 175.905 286.892 175.683 286.816 175.456C286.803 175.413 286.782 175.376 286.77 175.335C286.037 172.888 287.436 170.7 289.366 169.325C290.389 169.68 291.444 169.933 292.516 170.079C298.586 170.902 305.049 169.407 310.155 165.983C312.867 168.447 313.128 173.123 310.215 175.688ZM310.962 186.754C307.909 190.937 302.525 192.302 297.615 192.125C295.64 192.06 293.935 191.837 291.984 191.105C291.89 191.07 291.796 191.034 291.703 190.996L291.692 190.992C291.149 190.754 290.625 190.472 290.127 190.149C289.983 190.054 289.847 189.951 289.707 189.855L289.596 189.766C289.25 189.483 288.933 189.165 288.65 188.818C288.643 188.808 288.64 188.797 288.631 188.787C288.721 188.881 288.689 188.845 288.617 188.765C286.832 186.435 288.041 183.998 290.173 182.591C293.882 183.825 298.25 183.601 301.86 182.918C305.205 182.291 308.39 180.995 311.228 179.108C313.346 181.152 312.645 184.446 310.962 186.754ZM299.312 212.234C298.357 215.363 295.872 217.952 292.441 217.82C288.737 217.676 285.933 214.658 284.558 211.423C283.51 208.954 283.274 206.305 283.073 203.659C282.815 200.153 282.64 196.641 282.548 193.127C282.297 184.329 282.413 175.523 282.698 166.727C283.186 166.52 283.653 166.263 284.095 165.957C284.175 165.906 284.26 165.861 284.337 165.807C284.495 166.04 284.688 166.254 284.879 166.468C285.199 166.851 285.557 167.199 285.948 167.507C285.275 168.19 284.729 169.039 284.279 169.922C284.226 170.015 284.175 170.109 284.125 170.204C284.023 170.421 283.928 170.64 283.84 170.863C283.696 171.206 283.575 171.559 283.477 171.919C283.421 172.125 283.385 172.317 283.344 172.517C283.31 172.694 283.25 172.859 283.228 173.04C283.211 173.179 283.213 173.32 283.204 173.459C283.198 173.534 283.172 173.62 283.169 173.692C283.167 173.769 283.177 173.843 283.177 173.92C283.175 174.05 283.184 174.179 283.189 174.307C283.198 174.517 283.206 174.726 283.23 174.93C283.247 175.074 283.278 175.216 283.303 175.359C283.336 175.54 283.361 175.722 283.404 175.899C283.8 177.504 284.645 178.962 285.839 180.099C286.117 180.365 286.433 180.574 286.738 180.797L286.808 180.855C285.261 182.323 284.222 184.3 284.308 186.508C284.318 186.786 284.369 187.052 284.41 187.319C284.424 187.424 284.431 187.529 284.449 187.633C284.487 187.813 284.541 187.985 284.591 188.161C284.754 188.809 285.006 189.43 285.34 190.008C285.433 190.167 285.561 190.291 285.664 190.443C286.015 190.964 286.417 191.447 286.864 191.887L286.886 191.906C289.949 194.864 294.856 195.659 299.082 195.647C299.288 198.639 299.498 201.629 299.742 204.618C299.952 207.186 300.073 209.739 299.312 212.234ZM280.646 163.802C280.459 163.828 280.271 163.855 280.077 163.845C278.117 163.73 276.522 161.59 275.721 159.624C274.004 155.404 274.322 150.531 275.327 146.187C275.825 144.04 272.537 143.123 272.039 145.274C270.947 149.996 270.601 155.169 272.175 159.831C273.212 162.902 275.24 166.16 278.554 167.053C278.794 167.118 279.035 167.165 279.273 167.199C279.17 170.481 279.095 173.764 279.05 177.047C278.42 177.17 277.779 177.225 277.138 177.212C274.819 177.167 272.417 176.238 270.743 174.652C269.145 173.14 266.728 175.559 268.331 177.077C271.184 179.779 275.237 180.989 279.012 180.477C278.985 184.818 279.019 189.161 279.149 193.501C279.169 194.212 279.183 194.942 279.195 195.676C274.418 194.996 270.014 192.882 267.144 188.808C266.581 188.022 266.092 187.185 265.683 186.308L265.492 185.883L265.485 185.867L265.461 185.802C265.085 184.816 264.788 183.801 264.574 182.767C264.533 182.565 264.496 182.361 264.463 182.157L264.422 181.889C264.39 181.586 264.356 181.282 264.337 180.977C264.315 180.697 264.308 180.415 264.313 180.134C264.341 179.237 263.51 178.378 262.608 178.419C261.66 178.462 260.931 179.172 260.902 180.134C260.867 181.313 261.056 182.529 261.284 183.679C261.726 185.885 262.574 187.989 263.785 189.881C262.035 194.351 257.271 197.254 252.991 193.747C250.439 191.656 249.101 188.108 248.241 185.017C247.296 181.629 246.988 178.116 247.133 174.608C247.264 171.43 247.788 168.282 248.654 165.225C249.367 162.713 250.218 159.931 252.409 158.314C256.131 155.567 260.493 158.384 260.809 162.672C261.006 164.843 264.381 164.888 264.219 162.672C263.534 155.145 263.703 146.269 268.393 139.916C269.694 138.154 271.452 136.544 273.593 135.927C277.744 134.728 282.057 137.048 284.055 140.722C285.398 143.687 285.977 147.034 286.098 150.271C286.218 153.477 285.957 156.901 284.671 159.878C284.234 160.887 283.561 161.966 282.712 162.748C282.111 163.252 281.405 163.612 280.646 163.802ZM244.191 169.76C243.19 169.873 242.185 169.944 241.179 169.975C232.498 170.192 230.418 164.865 230.279 156.678C230.221 153.194 230.452 149.665 230.791 146.132C230.939 146.049 231.096 145.981 231.243 145.895C232.058 145.441 232.812 144.909 233.528 144.345C233.648 144.704 233.781 145.058 233.927 145.406C234.057 145.705 234.195 145.995 234.342 146.277C234.393 146.373 234.441 146.471 234.494 146.566C234.686 146.91 234.893 147.243 235.12 147.551L235.145 147.589C235.379 147.905 235.636 148.194 235.909 148.464C235.988 148.541 236.071 148.606 236.153 148.678C236.452 148.948 236.777 149.187 237.123 149.393C237.356 149.528 237.598 149.646 237.848 149.746C237.961 149.792 238.068 149.844 238.186 149.883C238.558 150.01 238.947 150.11 239.368 150.159C239.791 150.211 240.191 150.214 240.58 150.194C240.701 150.187 240.817 150.168 240.935 150.154C241.322 150.114 241.705 150.037 242.078 149.923C242.327 149.846 242.565 149.751 242.797 149.645C242.895 149.602 242.994 149.564 243.089 149.515C243.406 149.35 243.711 149.165 244.001 148.951C244.025 148.933 244.046 148.911 244.07 148.894C244.336 148.692 244.588 148.47 244.832 148.23C244.921 148.145 245.003 148.05 245.088 147.959C245.361 147.672 245.617 147.367 245.854 147.047C246.009 146.84 246.155 146.624 246.3 146.401C246.374 146.289 246.449 146.181 246.519 146.067C246.716 145.741 246.907 145.406 247.085 145.062C247.148 144.94 247.203 144.815 247.262 144.691C247.38 144.451 247.496 144.21 247.603 143.963C247.683 143.783 247.757 143.601 247.832 143.418C247.995 143.022 248.147 142.623 248.289 142.219C248.345 142.06 248.398 141.898 248.453 141.737C248.758 140.822 249.017 139.903 249.239 139.013L249.241 139.002C249.675 139.491 250.155 139.935 250.675 140.33L250.685 140.336C250.956 140.537 251.242 140.716 251.539 140.873C251.747 140.983 251.962 141.078 252.182 141.158C252.23 141.175 252.276 141.195 252.324 141.211C252.587 141.297 252.854 141.36 253.126 141.391C253.156 141.394 253.189 141.393 253.219 141.394C253.451 141.417 253.688 141.413 253.927 141.389C254.011 141.381 254.094 141.365 254.176 141.351C254.377 141.317 254.58 141.264 254.785 141.195C254.868 141.166 254.952 141.142 255.036 141.106C255.336 140.986 255.624 140.836 255.893 140.657C256.339 140.362 256.726 140 257.082 139.609C257.195 139.486 257.292 139.351 257.396 139.22C257.747 138.776 258.055 138.3 258.317 137.797C258.499 137.446 258.661 137.079 258.81 136.698C258.869 136.544 258.938 136.398 258.994 136.239C259.175 135.719 259.333 135.184 259.465 134.637C259.518 134.421 259.553 134.202 259.599 133.984C259.788 133.114 259.927 132.233 260.016 131.347C260.058 130.961 260.097 130.584 260.13 130.208C260.727 130.496 261.347 130.745 261.972 130.934L262.067 130.965C262.456 131.076 262.851 131.164 263.251 131.23C263.355 131.246 263.455 131.256 263.558 131.268C263.687 131.282 263.819 131.299 263.945 131.306C264.16 131.318 264.371 131.316 264.578 131.304C264.665 131.299 264.748 131.283 264.835 131.273C264.973 131.258 265.108 131.239 265.241 131.211C265.457 131.161 265.668 131.094 265.874 131.011C265.945 130.982 266.017 130.953 266.087 130.917C266.237 130.841 266.379 130.75 266.513 130.651C266.547 130.625 266.585 130.606 266.617 130.58C266.781 130.448 266.929 130.292 267.068 130.119C267.108 130.07 267.141 130.011 267.178 129.958C267.325 129.747 267.45 129.52 267.548 129.283C267.62 129.116 267.68 128.934 267.733 128.744C267.756 128.66 267.784 128.58 267.804 128.49C267.869 128.206 267.92 127.902 267.947 127.565C268.023 126.656 268.033 125.735 267.997 124.813C267.985 124.492 267.939 124.17 267.913 123.849C267.867 123.244 267.826 122.639 267.741 122.032C267.685 121.635 267.601 121.241 267.531 120.845C267.436 120.314 267.349 119.78 267.23 119.249C267.129 118.805 267.008 118.364 266.892 117.922C266.767 117.445 266.65 116.968 266.51 116.495C266.365 116.005 266.205 115.521 266.046 115.036C265.91 114.623 265.778 114.211 265.633 113.802C265.442 113.256 265.239 112.721 265.035 112.185C264.91 111.857 264.787 111.531 264.658 111.207C264.412 110.59 264.161 109.985 263.906 109.381L263.638 108.757C263.321 108.023 263.005 107.308 262.685 106.604L262.683 106.599C262.997 106.28 263.295 105.944 263.605 105.62C265.32 103.831 266.978 101.988 268.579 100.095C268.754 99.886 268.937 99.682 269.112 99.4711C270.028 98.3666 270.925 97.2462 271.802 96.1105L272.129 95.6853C273.025 94.5211 273.886 93.3329 274.735 92.1344C275.641 98.9687 278.501 105.637 283.285 110.434C282.345 118.098 281.681 125.795 281.16 133.5C276.502 131.355 270.739 132.177 266.883 136.396C262.248 141.466 260.715 148.539 260.546 155.435C259.201 154.409 257.568 153.835 255.88 153.794C250.3 153.611 247.179 158.485 245.686 163.236C245.023 165.369 244.523 167.551 244.191 169.76ZM215.258 152.539C215.686 150.442 215.913 148.299 215.971 146.257C217.024 146.947 218.187 147.451 219.409 147.749C217.936 149.265 216.551 150.865 215.258 152.539ZM132.689 143.675C128.17 147.74 122.688 152.129 116.728 153.768C114.857 154.283 111.704 154.581 111.791 151.747C111.896 148.326 115.398 145.014 117.734 142.924C119.156 141.65 117.246 139.078 115.667 140.232C110.648 143.894 104.193 144.421 98.7032 141.946C102.822 140.191 106.736 137.886 110.314 135.213C113.936 139.8 121.657 139.026 126.118 135.968C126.879 135.448 127.218 134.461 126.73 133.622C126.29 132.864 125.161 132.484 124.397 133.007C123.21 133.821 122.209 134.293 120.889 134.656C119.617 135.006 118.652 135.129 117.246 135.033C116.286 134.97 115.156 134.678 114.282 134.173C113.651 133.807 113.58 133.747 113.095 133.223L112.915 133.015C112.87 132.953 112.761 132.806 112.747 132.784C112.559 132.496 112.393 132.194 112.249 131.88C109.684 127.679 112.995 121.99 115.705 118.798C118.976 114.942 122.948 111.751 127.145 108.958C127.752 108.565 128.351 108.166 128.941 107.761C130.731 106.528 129.101 103.615 127.218 104.8C126.34 105.355 125.471 105.925 124.612 106.509C122.271 107.975 119.825 109.284 117.234 110.222C114.649 111.156 111.439 112.082 108.729 111.111C103.074 109.086 106.673 102.312 109.384 99.4505C113.67 94.9274 119.726 91.812 126.038 92.0606C131.981 92.2973 137.289 96.3197 139.576 101.806C142.325 108.411 138.682 115.801 135.602 121.582C134.848 122.999 136.448 124.948 137.935 123.928C140.387 122.248 143.745 120.288 146.798 120.413C152.16 120.636 147.063 127.866 145.693 129.751C141.985 134.851 137.364 139.469 132.689 143.675ZM52.6017 136.864C33.61 122.378 41.0286 94.1096 52.1788 77.2552C65.4027 57.2632 89.8127 40.9267 114.455 43.1505C124.546 44.0609 135.433 48.1416 141.314 56.8671C146.375 64.3753 147.55 73.9907 145.997 82.7933C145.251 87.0129 143.937 91.1571 141.922 94.9394C141.563 95.6167 141.172 96.2734 140.763 96.9181C137.759 92.5664 133.013 89.4425 127.754 88.7824C120.025 87.8102 112.241 91.464 106.973 97.0261C103.119 101.095 99.8134 108.32 104.962 112.817C107.727 115.233 111.634 115.19 115.022 114.445C113.853 115.664 112.761 116.955 111.753 118.313C109.093 121.91 106.998 127.336 108.53 131.844L108.487 131.884C93.754 143.455 68.5987 149.071 52.6017 136.864ZM325.312 234.964C325.223 234.947 325.15 234.973 325.066 234.969C324.993 234.952 324.938 234.911 324.858 234.903C320.951 234.464 316.935 236.429 313.372 237.761C310.311 238.904 307.079 240.087 303.791 240.552C305.627 239.007 307.15 237.138 307.512 234.851C307.979 231.9 305.914 229.713 303.264 228.859C299.517 227.65 295.224 228.737 291.587 229.824C287.988 230.901 284.574 231.971 280.95 232.488C282.463 229.714 282.971 226.515 280.054 224.248C275.675 220.846 268.916 222.731 264.228 224.25C256.656 226.703 249.072 225.706 242.091 222.786C246 218.259 248.072 212.282 246.038 206.399C243.29 198.456 235.336 195.628 227.67 196.136C230.675 192.972 232.486 188.993 228.924 185.572C225.927 182.695 221.193 182.342 217.308 181.718C215.551 181.435 213.79 181.174 212.03 180.914C212.319 177.361 212.91 173.814 213.708 170.376C214.044 168.932 214.441 167.499 214.867 166.074C215.439 168.685 216.278 171.216 217.482 173.622C222.909 184.453 233.776 187.41 245.072 186.414C246.505 191.494 249.292 196.75 254.427 198.351C259.442 199.915 263.807 197.021 266.14 192.844C269.646 196.465 274.309 198.421 279.258 199.059C279.374 204.122 279.737 209.369 281.895 213.772C283.796 217.652 287.417 220.802 291.81 221.205C295.857 221.577 299.594 219.329 301.512 215.783C302.882 213.256 303.368 210.314 303.332 207.462C303.281 203.385 302.79 199.274 302.469 195.196C307.227 194.392 311.719 192.095 314.334 187.839C316.542 184.249 316.568 179.775 313.773 176.838C314.963 175.149 315.584 172.943 315.713 170.979C315.903 168.109 314.782 165.623 312.836 163.756C316.665 159.504 316.425 153.275 311.994 149.679C312.863 148.578 313.433 147.269 313.648 145.879C313.862 144.49 313.713 143.069 313.217 141.754C312.025 138.529 309.659 136.532 306.426 135.661C304.746 135.21 302.976 134.949 301.169 134.848C301.057 127.052 301.082 119.245 301.546 111.461C307.981 106.499 311.719 99.2962 312.99 91.2445C314.3 82.9511 313.513 73.7352 308.516 66.7088C304.614 61.2187 298.236 58.2525 291.882 59.631C292.867 56.7365 293.619 53.7669 294.131 50.7512L294.172 50.4751L294.174 50.47L294.177 50.4477L294.252 49.9128C294.527 47.9462 294.709 45.5354 293.362 44.0232C293.225 43.8151 293.042 43.641 292.828 43.5139C293.118 41.6245 293.164 39.6801 292.927 37.7255C291.755 28.0553 284.009 21.0032 274.524 19.6778C270.069 19.0571 265.657 19.8458 261.851 22.0079C261.984 14.8941 257.96 8.40099 251.151 5.41248C243.36 1.99188 232.659 3.24697 227.472 10.3436C226.2 7.90378 224.616 5.73138 222.26 4.01166C217.287 0.383601 210.242 -0.648555 204.307 0.611664C191.829 3.26069 185.119 17.7678 191.494 28.9949C194.274 33.89 199.358 38.0307 205.025 38.7577L200.344 49.7842C200.3 49.791 200.254 49.7927 200.207 49.7996C199.976 49.8339 199.744 49.8802 199.512 49.9196C198.877 50.0242 198.241 50.1117 197.608 50.2437C197.409 50.2848 197.208 50.3449 197.006 50.3894C196.904 50.4117 196.802 50.4237 196.699 50.446C196.674 50.4529 196.657 50.4717 196.631 50.4803C189.61 52.1057 182.365 55.5846 177.513 60.9993C171.735 67.4444 170.727 76.4288 171.471 84.7634C172.402 95.2018 176.814 104.217 182.802 112.586C182.587 112.981 182.39 113.385 182.21 113.796C180.539 112.228 178.695 110.894 176.742 109.915C174.464 108.673 171.989 107.9 169.4 108.023C168.447 108.077 167.502 108.231 166.581 108.485C166.939 106.988 166.992 105.393 166.888 103.883C166.747 101.851 166.441 99.694 165.747 97.7736C164.949 95.5635 163.592 93.4957 161.523 92.3024C159.436 91.0988 156.966 91.0233 154.711 91.7726C150.446 93.3637 148.956 97.8354 149.302 102.106C149.665 106.587 151.911 111.237 156.026 113.388C156.767 113.774 157.527 113.995 158.286 114.138C158.185 114.27 158.073 114.393 157.976 114.529C156.558 116.524 155.672 118.796 155.169 121.164L155.14 121.289C155.031 121.825 154.941 122.365 154.872 122.908C154.85 123.065 154.81 123.22 154.793 123.378C154.781 123.48 154.781 123.59 154.769 123.691C154.749 123.918 154.735 124.144 154.72 124.37C154.384 128.712 155.054 133.761 157.583 137.423C157.74 137.658 157.902 137.888 158.075 138.109C158.095 138.135 158.11 138.164 158.133 138.19C157.953 139.48 157.84 140.78 157.795 142.082C157.749 143.824 157.827 145.683 158.581 147.281C159.343 148.896 161.1 149.734 162.817 149.18C164.584 148.611 165.858 147.016 166.864 145.535C167.71 144.289 168.386 142.919 168.974 141.521C170.881 140.909 172.612 139.765 173.824 138.111C174.08 138.435 174.36 138.726 174.631 139.028C174.522 139.138 174.406 139.239 174.339 139.392C173.538 141.2 173.033 143.126 172.844 145.096C172.747 146.067 172.758 147.046 172.878 148.014C167.156 151.171 160.418 153.842 154.289 151.039C149.198 148.71 145.715 143.484 142.877 138.476C144.542 136.646 146.134 134.75 147.649 132.794C150.328 129.322 155.656 121.946 150.554 118.165C147.883 116.185 144.278 116.852 141.061 118.247C143.425 112.958 145.021 107.111 143.12 101.566C142.973 101.138 142.809 100.714 142.632 100.299C142.753 100.124 142.884 99.9546 143.004 99.7797C145.492 96.1053 147.26 91.9012 148.415 87.6216C150.913 78.3629 150.671 68.1113 146.616 59.3327C141.956 49.2492 132.375 43.4282 121.897 40.9232C96.2132 34.7799 69.4549 49.7259 53.6591 69.4676C39.7853 86.8055 29.5954 115.448 45.5651 134.807C57.2166 148.933 77.7365 149.29 94.2963 143.39C99.005 146.631 104.947 147.654 110.397 146.377C107.976 150.267 106.838 154.756 111.542 156.98C114.064 158.173 117.137 157.376 119.591 156.409C123.29 154.952 126.683 152.777 129.856 150.398C130.128 150.195 130.392 149.979 130.661 149.772C135.512 157.271 141.675 164.147 150.206 167.104C156.494 169.284 162.921 168.922 169.099 167.199C168.516 169.938 168.077 172.705 167.784 175.491C166.163 175.326 164.543 175.142 162.921 174.993C159.364 174.666 155.209 174.15 152.046 176.226C148.389 178.623 148.609 182.186 150.332 185.639C144.121 182.412 137.289 180.501 130.254 181.36C124.893 181.999 119.918 184.482 116.17 188.388C111.825 180.11 106.681 172.163 100.19 165.709C97.3985 162.935 93.8921 159.924 89.8451 159.415C86.0556 158.938 82.0529 160.479 79.9928 163.79C77.2982 168.121 77.8661 173.941 78.625 178.733C79.2867 182.901 80.3612 187.006 81.5754 191.042C85.3615 203.618 90.7115 215.749 96.8681 227.324C100.858 234.837 105.238 242.134 109.991 249.183C113.593 254.521 117.429 259.809 121.914 264.44C123.669 266.25 125.869 268.351 128.316 269.919C128.485 270.156 128.644 270.396 128.838 270.624C132.111 274.477 137.405 276.318 142.11 277.69C146.423 278.947 150.844 279.833 155.274 280.545C168.572 282.685 182.109 283.274 195.557 282.793C203.838 282.498 212.118 281.8 220.325 280.634C226.173 279.802 232.08 278.746 237.669 276.78C242.393 275.116 248.47 272.323 249.657 266.921C249.66 266.902 249.674 266.886 249.677 266.866C249.682 266.828 249.681 266.792 249.686 266.753C249.737 266.489 249.791 266.226 249.82 265.95C250.013 264.097 249.585 262.243 248.857 260.546L248.833 260.501L248.816 260.453C248.78 260.366 248.732 260.289 248.686 260.211C248.666 260.155 248.671 260.102 248.644 260.043C247.936 258.572 246.691 257.444 245.301 256.53C243.723 255.464 241.914 254.673 240.22 253.994C239.072 253.536 237.914 253.101 236.748 252.69C238.038 252.007 239.303 251.284 240.514 250.474C242.207 249.339 243.909 247.959 245.345 246.371C246.106 246.845 246.863 247.332 247.627 247.776C258.486 254.08 270.93 258.164 283.4 259.491C295.681 260.801 307.935 258.259 318.857 252.491C323.091 250.255 328.296 246.716 329.292 241.615C329.865 238.692 328.434 235.523 325.312 234.964Z" fill="black"/>
<path d="M14.5736 254.126C14.398 254.18 13.7874 254.419 12.7417 254.843C16.2942 260.716 18.2666 263.976 18.6588 264.625C19.6516 266.524 20.4995 268.486 21.2024 270.509C21.5564 271.18 21.5933 271.887 21.3132 272.629C21.0561 273.41 20.5804 273.958 19.886 274.274C17.7194 275.428 16.0718 275.331 14.9434 273.982C13.2853 272.016 11.7797 269.958 10.4267 267.807C9.57406 266.656 8.81681 265.447 8.15489 264.181C6.5001 261.015 5.06658 257.741 3.85433 254.359C3.53657 253.145 3.62015 251.949 4.10508 250.77C4.65122 249.606 5.5003 248.728 6.65234 248.135C8.97055 246.628 11.4698 245.507 14.15 244.771C15.3411 244.416 16.6276 244.002 18.0094 243.531C19.4523 243.075 20.6585 242.657 21.6279 242.279C22.6585 241.916 23.979 241.43 25.5896 240.821C27.2002 240.211 28.4215 239.733 29.2534 239.386C30.2839 239.023 33.8523 237.645 39.9586 235.254C41.2791 234.768 42.4326 234.565 43.4189 234.645C44.4664 234.741 45.1747 235.094 45.5438 235.704C46.0452 236.963 46.088 238.239 45.6723 239.533C45.2565 240.826 44.4807 241.868 43.3446 242.66C40.0952 244.521 36.757 246.15 33.3301 247.546C31.4907 248.294 29.5404 249.031 27.4793 249.757C25.4563 250.46 23.1011 251.259 20.4138 252.155C17.7646 253.029 15.8179 253.685 14.5736 254.126Z" fill="black"/>
<path d="M30.889 290.671C29.8554 290.551 28.8665 290.278 27.9224 289.85C26.8069 288.458 26.3169 287.152 26.4522 285.93C26.6503 284.713 27.4093 283.781 28.7294 283.134C31.5738 281.667 34.5109 280.414 37.5405 279.374C44.6579 276.752 51.5784 273.655 58.3021 270.082C59.8212 269.325 61.3664 268.634 62.9376 268.008C64.1107 267.601 65.1433 267.547 66.0353 267.844C66.9273 268.141 67.5702 268.765 67.964 269.715C68.444 270.768 68.479 271.847 68.0691 272.95C67.7219 274.06 67.0507 274.888 66.0553 275.436C63.7006 276.723 61.2229 277.968 58.6222 279.17C50.7287 282.739 42.8234 286.259 34.9065 289.731C33.6546 290.32 32.3155 290.634 30.889 290.671Z" fill="black"/>
<path d="M70.63 296.009C70.928 295.794 72.6675 294.492 75.8484 292.102C73.2247 289.89 71.3309 288.264 70.1671 287.224C69.1055 286.271 68.5022 285.5 68.3572 284.911C68.2409 284.289 68.4918 283.334 69.1098 282.048C69.8842 280.369 70.6546 279.386 71.4209 279.1C72.2213 278.842 73.3892 279.185 74.9245 280.13C77.2669 281.639 79.4944 283.284 81.607 285.065C83.169 286.324 88.6352 290.903 98.0054 298.804L99.181 299.795C100.009 300.61 100.426 301.603 100.431 302.772C100.498 303.937 100.141 304.948 99.3603 305.805C98.6314 306.531 97.7501 306.954 96.7166 307.074C95.7117 307.159 94.7717 306.891 93.8964 306.27C92.1119 304.999 89.1402 302.784 84.9811 299.627C83.9696 298.891 83.2728 298.508 82.8906 298.477C82.5425 298.475 81.8614 298.833 80.8472 299.552C78.0791 301.591 74.1192 304.49 68.9673 308.249C63.8442 311.974 60.4631 314.429 58.8242 315.612C58.1367 316.082 57.4152 316.523 56.6595 316.935C55.6921 317.46 54.6755 317.594 53.6099 317.337C52.5442 317.079 51.7201 316.501 51.1375 315.602C50.4634 314.742 50.0953 313.761 50.0332 312.659C50.0051 311.586 50.3332 310.61 51.0173 309.729C51.5632 309.082 52.1942 308.506 52.9105 308.002C57.9708 304.282 61.5179 301.735 63.5516 300.36C64.3881 299.783 65.5881 299.016 67.1515 298.061C68.7489 297.134 69.9085 296.45 70.63 296.009Z" fill="black"/>
<path d="M106.546 321.51C106.789 321.234 108.195 319.578 110.766 316.542C107.717 314.967 105.509 313.802 104.144 313.047C102.897 312.353 102.138 311.736 101.865 311.194C101.614 310.613 101.647 309.626 101.964 308.235C102.346 306.426 102.879 305.297 103.562 304.847C104.285 304.418 105.5 304.493 107.207 305.074C109.826 306.025 112.363 307.134 114.819 308.401C116.621 309.282 122.968 312.534 133.858 318.156L135.225 318.862C136.213 319.473 136.84 320.348 137.104 321.487C137.429 322.608 137.305 323.673 136.734 324.682C136.184 325.552 135.419 326.16 134.438 326.506C133.477 326.813 132.501 326.76 131.51 326.349C129.487 325.505 126.098 324.006 121.342 321.851C120.192 321.358 119.428 321.139 119.048 321.194C118.708 321.269 118.124 321.77 117.295 322.696C115.048 325.298 111.831 329.004 107.642 333.813C103.474 338.583 100.722 341.727 99.3872 343.245C98.8212 343.855 98.2155 344.446 97.5703 345.015C96.7436 345.742 95.7821 346.098 94.686 346.084C93.5898 346.07 92.6579 345.689 91.8902 344.942C91.0419 344.253 90.4652 343.378 90.16 342.318C89.8944 341.278 89.9974 340.253 90.469 339.242C90.8574 338.49 91.3449 337.788 91.9314 337.138C96.0395 332.387 98.9323 329.116 100.61 327.324C101.297 326.575 102.297 325.562 103.61 324.283C104.961 323.025 105.94 322.1 106.546 321.51Z" fill="black"/>
<path d="M138.814 354.415C138.725 354.575 138.447 355.17 137.983 356.198C144.606 357.999 148.283 358.999 149.014 359.198C151.044 359.888 153.011 360.723 154.915 361.703C155.634 361.945 156.149 362.431 156.458 363.162C156.811 363.904 156.844 364.629 156.56 365.337C155.787 367.667 154.528 368.733 152.78 368.535C150.223 368.256 147.714 367.804 145.25 367.181C143.839 366.936 142.457 366.583 141.104 366.123C137.722 364.972 134.426 363.591 131.215 361.979C130.148 361.319 129.383 360.395 128.92 359.207C128.513 357.988 128.522 356.766 128.947 355.543C129.586 352.853 130.622 350.317 132.055 347.935C132.671 346.856 133.318 345.669 133.993 344.375C134.723 343.049 135.308 341.915 135.749 340.973C136.245 339.999 136.865 338.736 137.611 337.183C138.356 335.631 138.91 334.442 139.273 333.617C139.769 332.643 141.402 329.185 144.173 323.241C144.794 321.978 145.489 321.035 146.258 320.413C147.083 319.76 147.839 319.527 148.527 319.714C149.759 320.28 150.67 321.174 151.261 322.397C151.853 323.62 152.01 324.91 151.733 326.267C150.665 329.856 149.372 333.338 147.854 336.712C147.038 338.523 146.135 340.402 145.143 342.349C144.164 344.254 143.01 346.457 141.683 348.96C140.368 351.42 139.411 353.238 138.814 354.415Z" fill="black"/>
<path d="M187.314 341.612C187.256 341.832 187.142 342.272 186.97 342.931C186.845 343.549 186.724 344.1 186.606 344.585C187.656 344.958 188.713 345.219 189.775 345.37C190.89 345.39 192.452 345.413 194.459 345.439C196.469 345.421 197.897 345.436 198.742 345.485C200.485 345.451 201.805 346.175 202.702 347.655C203.717 349.41 203.919 350.94 203.308 352.244C202.741 353.55 201.517 354.261 199.636 354.376C197.799 354.493 193.467 354.511 186.642 354.43C185.079 354.43 184.111 354.575 183.737 354.866C183.366 355.112 182.914 355.979 182.382 357.466C182.22 357.948 182.034 358.473 181.822 359.041C181.655 359.612 181.461 360.27 181.24 361.016C181.018 361.762 180.85 362.355 180.735 362.795C182.416 363.071 183.278 363.21 183.323 363.212C190.422 363.979 195.127 364.451 197.438 364.629C198.325 364.724 199.002 364.987 199.468 365.415C199.937 365.799 200.191 366.439 200.228 367.334C200.257 367.604 200.325 367.987 200.43 368.484C200.538 368.937 200.585 369.274 200.572 369.497C200.756 370.177 200.654 370.796 200.264 371.354C199.875 371.912 199.343 372.238 198.668 372.333C197.488 372.667 196.271 372.865 195.018 372.927C193.5 372.928 190.846 372.887 187.056 372.802C183.311 372.721 180.409 372.71 178.352 372.77C176.481 372.706 174.795 372.14 173.294 371.072C171.84 369.961 170.83 368.519 170.262 366.745C169.968 365.657 169.853 364.556 169.917 363.444C169.981 362.332 170.22 361.274 170.635 360.271C171.021 358.999 171.702 357.252 172.678 355.032C173.702 352.769 174.319 351.354 174.53 350.786C174.94 349.872 175.442 348.517 176.037 346.721C176.631 344.925 176.982 343.874 177.089 343.567C179.377 337.181 181.049 332.568 182.106 329.727C182.377 328.894 182.883 328.254 183.623 327.805C184.407 327.36 185.221 327.183 186.064 327.276C195.031 327.392 200.491 327.528 202.447 327.685C204.844 327.913 207.132 328.491 209.311 329.42C210.358 329.837 211.121 330.551 211.598 331.561C212.123 332.528 212.243 333.54 211.959 334.595C211.527 336.668 210.019 337.653 207.436 337.549C206.057 337.469 204.144 337.359 201.696 337.218C199.249 337.077 197.336 336.966 195.956 336.887C194.844 336.823 193.725 336.87 192.6 337.028C190.535 337.222 189.29 337.529 188.864 337.951C188.44 338.329 187.923 339.549 187.314 341.612Z" fill="black"/>
<path d="M254.091 347.293C254.302 347.645 254.924 348.659 255.955 350.334C257.156 341.707 257.819 336.95 257.945 336.062C258.181 333.961 258.934 332.699 260.202 332.275C261.103 331.879 262.033 331.779 262.992 331.975C263.936 332.129 264.754 332.536 265.446 333.198C269.199 336.406 272.326 340.13 274.826 344.369C275.349 345.228 275.942 346.017 276.605 346.735C276.928 346.015 277.146 345.261 277.257 344.472C277.433 338.82 277.492 334.993 277.433 332.992C277.344 330.342 277.058 326.608 276.572 321.788C276.57 320.379 276.413 318.998 276.102 317.645C275.28 314.489 275.968 312.543 278.166 311.808C279.518 311.496 280.773 311.734 281.93 312.522C283.115 313.253 283.842 314.302 284.111 315.669C284.778 318.923 285.198 322.214 285.372 325.54C285.775 332.22 285.791 338.936 285.419 345.687C284.847 349.874 283.845 353.969 282.412 357.974C281.92 359.032 281.118 359.723 280.005 360.049C278.892 360.374 277.835 360.235 276.833 359.63C275.494 358.998 274.386 358.076 273.511 356.865C272.833 355.964 270.058 352.169 265.187 345.481C264.892 346.144 264.675 346.828 264.535 347.533C264.424 348.886 264.25 350.824 264.014 353.347C263.82 355.856 263.66 357.625 263.534 358.654C263.594 360.937 262.955 363.031 261.619 364.935C260.718 366.177 259.479 366.827 257.901 366.885C256.364 366.93 255.088 366.346 254.072 365.136C253.267 364.277 252.597 363.326 252.06 362.284C248.16 355.271 245.526 350.489 244.155 347.94C242.417 344.574 239.28 338.433 234.744 329.517C234.193 328.433 234.009 327.461 234.191 326.601C234.415 325.727 234.964 325.049 235.837 324.569C237.316 323.792 238.507 323.487 239.409 323.655C240.311 323.823 241.101 324.499 241.779 325.682C249.478 339.131 253.582 346.335 254.091 347.293Z" fill="black"/>
<path d="M317.627 297.28C321.818 298.662 324.941 301.294 326.995 305.174C330.162 310.24 332.038 315.74 332.622 321.673C332.871 324.615 332.446 327.471 331.347 330.24C330.249 333.01 328.6 335.396 326.4 337.4C326.351 337.487 326.271 337.567 326.16 337.641C321.834 340.153 317.243 340.86 312.384 339.763C309.38 338.874 306.777 337.343 304.575 335.168C302.374 332.994 300.834 330.405 299.954 327.402C297.565 321.013 296.838 314.424 297.774 307.638C297.885 306.921 298.058 306.216 298.292 305.524C299.798 301.036 302.139 298.16 305.315 296.898C308.466 295.598 312.57 295.726 317.627 297.28ZM323.926 322.494C324.122 318.13 322.84 314.243 320.082 310.833C319.351 309.016 318.182 307.546 316.575 306.422C314.942 305.261 313.162 304.601 311.234 304.441C309.973 304.157 308.817 304.393 307.767 305.147C306.729 305.84 306.117 306.811 305.933 308.06C305.637 309.222 305.538 310.359 305.638 311.471C306.024 316.626 307.219 321.588 309.225 326.359C310.128 328.595 311.582 330.412 313.585 331.807C314.624 332.561 315.792 332.906 317.09 332.844C318.4 332.719 319.519 332.187 320.445 331.247C322.916 328.848 324.076 325.93 323.926 322.494Z" fill="black"/>
<path d="M350.587 304.273C350.683 304.43 351.067 304.961 351.739 305.868C356.539 300.961 359.203 298.237 359.733 297.695C361.324 296.259 363.012 294.949 364.795 293.763C365.357 293.252 366.032 293.04 366.821 293.126C367.641 293.18 368.291 293.503 368.77 294.097C370.429 295.906 370.746 297.526 369.722 298.956C368.232 301.052 366.615 303.024 364.871 304.872C363.969 305.985 362.988 307.02 361.927 307.977C359.274 310.37 356.462 312.576 353.49 314.594C352.394 315.205 351.215 315.423 349.952 315.248C348.689 315.01 347.626 314.407 346.765 313.44C344.727 311.571 343.017 309.431 341.635 307.02C340.993 305.955 340.271 304.813 339.47 303.593C338.668 302.309 337.962 301.245 337.354 300.401C336.745 299.494 335.945 298.337 334.952 296.929C333.959 295.522 333.191 294.459 332.648 293.74C332.039 292.833 329.814 289.722 325.973 284.406C325.172 283.249 324.688 282.183 324.519 281.208C324.35 280.169 324.515 279.395 325.014 278.886C326.108 278.086 327.333 277.725 328.689 277.805C330.045 277.884 331.248 278.375 332.298 279.278C334.912 281.959 337.323 284.785 339.531 287.755C340.715 289.349 341.915 291.053 343.133 292.868C344.319 294.651 345.681 296.732 347.221 299.11C348.728 301.457 349.85 303.178 350.587 304.273Z" fill="black"/>
<path d="M364.169 251.784C364.73 252.399 366.633 254.775 369.878 258.914L372.399 254.892C375.785 249.492 377.868 246.169 378.649 244.923C379.35 243.89 380.01 243.383 380.629 243.403C381.233 243.361 381.977 243.853 382.859 244.88C384.364 246.086 385.212 247.67 385.403 249.631C385.618 251.554 385.103 253.257 383.858 254.738C383.186 255.895 382.186 257.53 380.861 259.645C379.497 261.736 378.479 263.36 377.806 264.516C376.93 265.913 376.499 266.853 376.513 267.335C376.55 267.779 377.045 268.668 377.997 270.001C380.454 273.383 382.045 275.669 382.771 276.861C383.897 278.672 384.396 280.142 384.267 281.271C384.123 282.338 383.281 283.598 381.739 285.051C380.929 286.174 379.83 286.669 378.441 286.535C377.029 286.438 376.014 285.749 375.397 284.468C374.459 283.196 373.03 281.196 371.111 278.467C369.154 275.715 367.662 273.648 366.634 272.267C365.592 270.825 363.989 268.767 361.824 266.095C359.683 263.385 358.471 261.836 358.188 261.448C355.302 257.745 353.499 255.378 352.777 254.347C352.037 253.514 351.67 252.548 351.676 251.447C351.645 250.323 352.007 249.366 352.764 248.578C353.446 247.743 354.317 246.606 355.377 245.167C356.532 243.576 357.28 242.467 357.621 241.839C358.175 240.871 359.433 238.74 361.393 235.445C363.34 232.089 364.85 229.512 365.925 227.713C366.645 226.481 367.48 225.821 368.43 225.733C369.379 225.644 370.357 226.099 371.361 227.098C372.343 228.134 373.25 229.203 374.085 230.305C374.302 230.546 374.446 230.82 374.516 231.127C374.573 231.373 374.544 231.67 374.43 232.02C374.302 232.308 374.221 232.52 374.188 232.657C374.117 232.771 373.951 233.035 373.691 233.45L365.132 247.101L363.996 248.913C363.674 249.343 363.527 249.829 363.554 250.373C363.582 250.916 363.787 251.386 364.169 251.784Z" fill="black"/>
</svg>
