<svg width="245" height="279" viewBox="0 0 245 279" fill="none" xmlns="http://www.w3.org/2000/svg">
<path d="M21.0345 244.83L21.0547 244.85L21.1554 244.821C21.118 244.795 21.0662 244.795 21.0144 244.793C21.0194 244.806 21.0261 244.819 21.0345 244.83ZM20.7813 244.369L20.8734 244.539C20.8466 244.465 20.8109 244.395 20.7669 244.329L20.7813 244.369ZM236.644 71.6418C231.985 71.9844 227.418 75.2115 223.965 77.8658C223.717 78.0558 223.49 78.2747 223.245 78.4675C221.878 79.5442 220.546 80.6554 219.248 81.8127C218.891 82.1265 218.528 82.4346 218.177 82.757C216.71 84.0945 215.279 85.47 213.884 86.8824C212.899 87.8756 211.944 88.8976 210.989 89.9138C210.753 90.1671 210.505 90.4147 210.272 90.6681C210.341 89.957 210.448 89.2488 210.502 88.5406C210.649 86.6146 210.799 84.4267 210.738 82.2215C210.718 81.4874 210.675 80.7504 210.6 80.0192C210.527 79.2956 210.419 78.5759 210.275 77.863C209.84 75.7441 209.058 73.7721 207.714 72.1945C203.244 66.9378 196.721 69.8396 190.89 74.5552C190.201 75.1152 189.525 75.6921 188.864 76.2854C187.88 77.1694 186.923 78.0834 185.995 79.026C184.33 80.7149 182.727 82.4625 181.186 84.2655C180.294 85.299 179.54 86.2087 178.959 86.9054C177.582 88.5619 176.242 90.2493 174.941 91.9664C173.846 93.4216 172.78 94.8987 171.744 96.3969C171.603 96.6013 171.454 96.7971 171.315 97.0015C168.953 100.43 166.795 103.994 164.852 107.676C160.492 104.024 155.86 100.709 150.995 97.7615L150.987 97.7586C147.742 95.7924 144.399 93.9946 140.969 92.3723L140.94 92.3579C125.89 85.2414 109.242 81.6083 92.7058 82.757L100.861 63.6415C101.644 61.8048 100.79 59.1735 98.375 59.3088C90.1273 59.781 82.4379 54.6422 77.8133 48.0842C72.4951 40.5388 71.39 31.1653 74.7916 22.5719C81.4594 5.71054 103.492 1.3347 118.266 10.2015C123.668 13.4431 126.609 18.4782 128.934 24.1351C129.746 26.1043 133.075 27.3681 134.195 24.8232C140.112 11.356 157.657 8.64696 169.989 14.3183C180.809 19.2929 186.412 30.4974 183.578 42.102C182.878 44.9722 186.257 46.8032 188.389 44.9031C202.358 32.4521 227.044 38.561 234.509 55.4944C236.738 60.5651 237.478 66.1657 236.644 71.6418ZM148.469 218.99C148.245 220.283 147.962 221.566 147.62 222.833C147.317 223.954 146.963 225.061 146.558 226.149L146.52 226.241C146.118 227.309 145.651 228.346 145.145 229.353L144.9 229.814C144.219 231.083 143.442 232.298 142.578 233.45C141.798 234.5 140.933 235.484 139.991 236.392C139.704 236.673 139.411 236.947 139.11 237.213C138.099 238.091 137.019 238.887 135.881 239.593C134.536 240.42 133.11 241.107 131.625 241.643C127.429 243.126 122.5 243.382 118.396 241.836C117.889 241.625 117.395 241.387 116.914 241.122C116.712 241.016 116.499 240.923 116.301 240.808C115.851 240.53 115.417 240.225 115.003 239.896C113.804 238.991 112.786 237.869 112.001 236.588L111.996 236.582C111.483 235.716 110.565 235.287 109.63 235.246C109.01 235.217 108.395 235.362 107.854 235.667C107.439 235.895 107.1 236.243 106.883 236.665C106.666 237.087 106.579 237.564 106.634 238.036L106.64 238.137C107.259 245.23 106.795 256.368 102.761 264.21C102.561 264.583 102.352 264.951 102.133 265.313C101.595 266.243 100.978 267.125 100.289 267.95L100.228 268.028C98.1446 270.503 95.3053 272.225 92.1475 272.928C91.8108 272.997 91.477 273.066 91.1259 273.115C90.7186 273.174 90.3084 273.213 89.8971 273.23C89.5891 273.237 89.2809 273.231 88.9733 273.213C88.4783 273.184 87.9862 273.149 87.5056 273.06C87.379 273.037 87.2553 272.999 87.1287 272.974C85.1423 272.503 83.2805 271.611 81.6695 270.357C81.4824 270.216 81.3126 270.052 81.1313 269.902C80.7831 269.614 80.4292 269.332 80.1011 269.021C78.7501 267.698 77.5565 266.222 76.5442 264.625C76.3082 264.256 76.0636 263.894 75.8449 263.519C75.4736 262.877 75.1456 262.23 74.829 261.579C74.7427 261.398 74.6448 261.225 74.5614 261.044C72.2764 256.081 71.5109 250.83 71.3354 245.377C74.1412 245.314 76.8981 244.931 79.5946 244.274C78.786 253.608 83.8681 262.938 89.828 261.614C96.9304 260.036 99.5636 247.3 98.2196 234.852C103.066 230.938 107.283 226.304 110.727 221.111C113.894 216.338 116.608 211.279 118.833 206C119.386 206.121 119.932 206.268 120.471 206.441C127.993 208.914 130.69 217.608 129.766 224.799C129.567 226.354 131.234 227.661 132.644 227.678C134.365 227.695 135.326 226.333 135.522 224.799C136.77 215.074 132.057 204.561 122.52 201.069C110.229 196.566 97.8743 204.328 90.3115 213.6C87.9891 216.448 92.0382 220.544 94.3807 217.671C99.0139 211.991 105.5 206.662 112.775 205.715C106.398 220.164 95.1865 234.167 79.3183 238.603C75.4333 239.688 71.2634 239.95 67.1482 239.504C66.305 239.398 65.4618 239.262 64.6186 239.101C64.2416 239.032 63.8646 238.966 63.4876 238.882C60.4456 238.195 57.5065 237.113 54.7449 235.664C54.4859 235.526 54.224 235.39 53.9679 235.243C52.9023 234.623 51.8768 233.937 50.8973 233.188C50.7621 233.084 50.6211 232.986 50.4858 232.88C49.962 232.463 49.5016 231.979 49.0066 231.527C47.4491 230.068 46.0477 228.451 44.8252 226.702C42.6861 223.441 41.2389 219.776 40.5731 215.934C39.9074 212.091 40.0372 208.153 40.9546 204.362C41.8438 200.766 36.2954 199.232 35.4033 202.833C33.3486 211.142 34.54 219.228 38.0797 226.106C37.2916 227.823 36.0748 229.308 34.5466 230.417C33.0183 231.527 31.2301 232.225 29.3542 232.442C29.101 232.465 28.8506 232.5 28.5974 232.509C28.3136 232.523 28.0295 232.526 27.7455 232.52C26.9434 232.487 26.1469 232.371 25.3685 232.175C24.7468 232.016 24.1401 231.803 23.5555 231.538C23.3425 231.443 23.1382 231.328 22.931 231.219C22.3957 230.934 21.8777 230.614 21.3943 230.234C21.2216 230.099 21.0576 229.941 20.8906 229.794C20.5194 229.469 20.1971 229.097 19.8662 228.732C19.1459 227.944 18.5112 227.082 17.9726 226.161C17.1897 224.818 16.5649 223.389 16.1106 221.903C14.6142 217.035 14.5307 211.456 15.1005 206.991C15.1437 206.674 15.2185 206.366 15.2703 206.052C15.397 205.321 15.5236 204.581 15.6905 203.899C15.7193 203.775 15.7653 203.654 15.797 203.53C16.0013 202.736 16.2315 201.95 16.5107 201.184C16.574 201.005 16.6574 200.836 16.7265 200.657C16.9999 199.946 17.2905 199.244 17.6272 198.564C17.7078 198.406 17.8028 198.256 17.8862 198.098C18.2402 197.424 18.6114 196.759 19.0258 196.126C19.1323 195.962 19.2589 195.809 19.3712 195.648C19.7827 195.052 20.2115 194.468 20.6777 193.918C20.8532 193.71 21.0518 193.523 21.236 193.325C21.6705 192.85 22.1108 192.383 22.5857 191.951C22.8533 191.713 23.1468 191.499 23.426 191.275C23.8634 190.918 24.3008 190.561 24.7699 190.241C25.0749 190.034 25.4088 189.859 25.7282 189.669C26.2376 189.366 26.7412 189.055 27.2822 188.799C27.5326 188.678 27.7829 188.598 28.0333 188.491C28.6492 188.229 29.2736 187.976 29.9298 187.774C35.8292 186.044 41.6366 187.875 46.8627 191.451C47.28 191.744 47.6915 192.052 48.1001 192.366L48.3534 192.559C50.5233 194.283 52.5475 196.182 54.4053 198.239C54.437 198.282 54.4802 198.314 54.5147 198.357L54.7536 198.613C54.8025 198.668 54.8687 198.699 54.9233 198.751C55.0471 198.855 55.1536 198.97 55.2917 199.056C59.2573 203.689 62.3394 209.158 63.8761 214.853C64.8402 218.425 70.3943 216.911 69.4274 213.321C67.8216 207.379 64.4949 201.086 60.0544 195.665C60.1811 195.245 60.2703 194.816 60.4228 194.404C60.5696 194.007 60.771 193.633 60.9379 193.244C61.1854 192.677 61.4128 192.095 61.7063 191.551C61.8818 191.226 62.1034 190.929 62.2934 190.616C62.6416 190.04 62.9754 189.456 63.3754 188.914C63.5538 188.672 63.7668 188.465 63.9567 188.232C64.4172 187.656 64.8747 187.078 65.3927 186.557C65.5539 186.395 65.741 186.266 65.9079 186.107C66.4921 185.558 67.0849 185.013 67.7295 184.536C67.905 184.406 68.1065 184.311 68.2878 184.187C68.9554 183.729 69.6288 183.278 70.3483 182.909C70.6591 182.751 70.9987 182.65 71.321 182.509C71.9455 182.232 72.5642 181.936 73.2261 181.729C74.0462 181.472 74.9067 181.311 75.7758 181.176C75.9657 181.144 76.1413 181.078 76.3341 181.055C76.9758 180.974 77.56 181.006 78.1643 180.997C78.6075 180.992 79.0824 180.925 79.5083 180.957C80.504 181.026 81.445 181.193 82.3371 181.452L82.3602 181.455C83.1165 181.686 83.8489 181.988 84.5473 182.359C84.6566 182.414 84.7833 182.443 84.8897 182.5C87.8999 184.156 90.0784 187.026 91.4281 190.575C91.4914 190.742 91.5806 190.892 91.6381 191.062C91.972 192.009 92.2454 193.002 92.4583 194.03C92.5689 194.597 92.8781 195.107 93.3303 195.467C94.6051 196.491 96.8354 196.267 97.716 194.718C103.598 184.392 115.676 178.222 126.741 179.394C134.514 180.931 140.986 185.002 144.86 191.652C145.105 192.084 145.361 192.51 145.582 192.956C145.853 193.505 146.103 194.064 146.333 194.632C146.572 195.196 146.811 195.757 147.018 196.333C147.246 196.981 147.444 197.64 147.634 198.305C147.764 198.751 147.896 199.195 148.008 199.644C148.19 200.372 148.336 201.109 148.477 201.849C148.575 202.373 148.676 202.894 148.751 203.421C148.834 203.968 148.895 204.52 148.958 205.073C149.047 205.928 149.131 206.783 149.174 207.644L149.197 208.174C149.323 211.794 149.079 215.419 148.469 218.99ZM53.9708 244.145C53.5027 244.837 53.0181 245.517 52.5175 246.186C52.5923 246.085 52.7938 245.841 52.4369 246.29C51.4757 247.511 50.4003 248.638 49.2253 249.655C49.139 249.715 48.8282 249.963 48.7476 250.015C48.5624 250.136 48.3733 250.251 48.1807 250.36C48.0915 250.409 47.6397 250.591 47.6915 250.593L47.2656 250.709L47.2138 250.729C47.1994 250.729 47.2138 250.723 47.1936 250.723C47.09 250.717 46.9749 250.72 46.8684 250.72C47.1274 250.642 46.9691 250.688 46.785 250.691C46.7361 250.66 46.6862 250.63 46.6353 250.602C46.6267 250.591 46.6353 250.596 46.6238 250.585C46.5736 250.525 46.5187 250.469 46.4598 250.418C46.431 250.389 46.4368 250.398 46.4166 250.383C46.3648 250.285 46.3159 250.182 46.29 250.139L46.1634 249.911C46.0626 249.738 46.0454 249.428 46.0799 249.77C46.1231 250.17 46.0166 249.58 45.959 249.407C45.8127 248.956 45.6973 248.495 45.6137 248.028C45.5936 247.925 45.5849 247.81 45.5562 247.709V247.703C45.4148 246.248 45.4206 244.782 45.5734 243.327L45.6137 242.967C45.7325 242.159 45.8871 241.356 46.077 240.561C46.3296 239.509 46.6468 238.473 47.0267 237.46L47.0958 237.279C48.8004 238.617 50.6228 239.799 52.5405 240.808C53.4096 241.283 54.3104 241.718 55.2284 242.127C54.8111 242.8 54.4111 243.486 53.9708 244.145ZM46.69 250.694L46.6699 250.66L46.7274 250.691L46.69 250.694ZM25.7311 239.749C25.3958 240.305 25.0446 240.851 24.6778 241.387C24.4965 241.649 24.3095 241.902 24.1224 242.161L24.0907 242.202L24.1483 242.135L24.0821 242.216L24.0907 242.202L23.9699 242.351C23.5475 242.879 23.0909 243.378 22.6029 243.845C22.4418 243.995 22.2749 244.139 22.1108 244.283C21.9871 244.367 21.8691 244.456 21.7425 244.534C21.6792 244.571 21.5381 244.669 21.3971 244.755L21.3568 244.761L21.1554 244.821L21.1755 244.847L21.164 244.853C21.1295 244.85 21.0947 244.851 21.0604 244.856L21.0547 244.85L21.0518 244.853L21.0345 244.83L20.9971 244.793H21.0144L20.8734 244.539C20.882 244.571 20.8935 244.603 20.8705 244.6C20.8314 244.527 20.8015 244.45 20.7813 244.369L20.7784 244.364C20.6691 244.194 20.7093 244.24 20.7669 244.329C20.7624 244.311 20.7566 244.292 20.7496 244.274C20.6777 244.044 20.6029 243.814 20.5424 243.578C20.4874 243.359 20.4385 243.14 20.3957 242.918C20.3726 242.798 20.3381 242.559 20.3151 242.412C20.1885 241.16 20.1338 239.904 20.1597 238.643C20.177 237.878 20.2575 237.115 20.3093 236.352L20.5367 236.467C20.7036 236.553 20.8417 236.666 21.0115 236.746C21.1007 236.789 21.1957 236.807 21.2849 236.847C22.0216 237.184 22.7756 237.46 23.5382 237.676C23.754 237.737 23.967 237.777 24.1828 237.829C24.8179 237.983 25.4618 238.097 26.1109 238.171C26.252 238.189 26.393 238.235 26.534 238.246C26.2635 238.747 26.0217 239.262 25.7311 239.749ZM21.1813 244.98L21.1295 244.925C21.2389 244.962 21.3022 244.983 21.1439 244.925L21.0978 244.893C21.2014 244.916 21.213 244.919 21.0835 244.879C21.0802 244.875 21.0763 244.872 21.0719 244.87L21.1468 244.859L21.1295 244.867L21.1525 244.859L21.1813 244.853C21.3079 244.974 21.3252 245.167 21.1813 244.98ZM21.0806 244.908L21.1007 244.916C21.1496 244.971 21.1842 245.017 21.1669 245.026C21.1583 245.032 21.1237 244.98 21.0806 244.908ZM21.0374 244.856C20.9996 244.826 20.958 244.802 20.9137 244.784C20.9396 244.775 20.954 244.79 20.9741 244.79L21.0374 244.856ZM52.7247 161.174C56.0946 158.629 60.2386 156.758 63.8272 155.387C64.9985 154.941 65.9769 153.957 65.9395 152.612C65.689 144.883 63.3823 137.36 59.2573 130.819C56.7651 126.898 52.3449 121.339 47.0008 122.689C48.3936 120.49 50.2038 118.636 52.5923 117.404C59.9393 113.618 66.3885 119.937 69.931 125.891C76.1326 136.312 78.1068 149.281 78.5183 161.22C78.6766 165.849 78.6075 170.59 78.1385 175.257C77.5399 175.263 76.9557 175.237 76.337 175.297H76.3312C75.2797 175.408 74.2366 175.587 73.2088 175.836C73.039 175.876 72.8721 175.911 72.7052 175.954C72.0519 176.124 71.4246 176.36 70.7943 176.584C70.7051 175.922 70.6217 175.243 70.5469 174.598C70.1094 170.803 69.6404 166.96 68.636 163.267C68.2907 161.991 67.1309 161.223 65.8618 161.154C61.4858 160.917 57.1 160.924 52.7247 161.174ZM106.188 160.103C100.977 158.2 95.2555 157.336 89.6151 157.014C94.7577 152.658 101.84 149.915 107.984 148.277C108.919 148.026 109.774 147.226 109.996 146.264C111.616 139.228 112.272 119.459 101.374 119.713C104.364 118.368 107.794 117.81 111.711 118.357C130.644 120.988 128.177 149.543 125.366 162.63C124.571 166.229 123.577 169.781 122.39 173.271C117.639 173.34 112.983 174.601 108.718 176.743L108.654 176.771C107.541 177.336 106.45 177.952 105.394 178.628L105.27 178.709C106.893 173.536 108.036 168.215 108.301 162.881C108.367 161.542 107.345 160.529 106.188 160.103ZM46.3418 114.833C47.2828 112.68 48.4167 110.621 49.8095 108.71C56.4054 99.6443 67.8734 93.829 78.4176 90.8868C78.4867 90.8696 78.5586 90.8581 78.6277 90.8379C80.7975 101.579 81.1371 112.887 80.5443 123.778C80.3946 126.524 84.72 127.848 85.9056 125.231C92.1763 111.378 105.331 99.9005 121.343 102.676C134.776 105.005 143.962 114.041 146.518 127.353C148.967 140.124 147.237 154.437 142.966 166.629C141.666 170.318 140.057 173.89 138.155 177.307C135.082 175.6 131.744 174.422 128.281 173.823C129.07 171.385 129.8 168.926 130.399 166.433C133.262 154.466 134.52 140.938 130.56 129.055C128.008 121.397 122.678 114.853 114.519 113.042C106.188 111.194 97.5261 113.27 91.6094 119.523C86.6337 124.782 83.2494 131.522 81.1803 138.658C80.4867 136.134 79.7212 133.649 78.809 131.263C76.0492 124.042 71.7987 116.149 64.6733 112.406C58.6472 109.242 51.7002 110.233 46.5605 114.623C46.4828 114.689 46.4166 114.764 46.3418 114.833ZM243.171 73.7491C242.937 73.4019 242.63 73.1108 242.27 72.897C242.756 69.7245 242.837 66.457 242.437 63.178C240.46 46.9413 227.389 35.1006 211.383 32.8753C203.863 31.8303 196.421 33.1574 189.998 36.7848C190.22 24.8434 183.434 13.9383 171.943 8.92046C158.797 3.18005 140.739 5.28735 131.988 17.2029C129.841 13.1063 127.167 9.4588 123.193 6.57132C114.799 0.476813 102.913 -1.25336 92.8986 0.862584C71.8419 5.31039 60.5178 29.6683 71.2778 48.5189C75.9686 56.7351 84.5444 63.6875 94.1102 64.911L86.2106 83.4249L85.9804 83.4508C85.589 83.5084 85.1977 83.5861 84.8063 83.6494C83.7357 83.8279 82.6595 83.9748 81.5918 84.1964C81.2551 84.2655 80.9155 84.3634 80.5788 84.4382C80.4062 84.4757 80.2335 84.4987 80.0579 84.5361C80.0148 84.5448 79.9889 84.5793 79.9457 84.5908C68.0979 87.32 55.8701 93.164 47.6828 102.253C37.9358 113.077 36.2321 128.162 37.4868 142.153C39.061 159.683 46.5058 174.817 56.6097 188.871C56.247 189.533 55.9138 190.212 55.6111 190.904C52.7909 188.267 49.68 186.027 46.3821 184.383C42.5374 182.302 38.3646 181 33.9961 181.208C32.3877 181.298 30.7933 181.558 29.2391 181.982C29.8434 179.469 29.9298 176.794 29.7542 174.255C29.5182 170.847 29.0002 167.222 27.8319 163.998C26.4851 160.287 24.1915 156.818 20.7036 154.814C17.1812 152.793 13.0141 152.667 9.20971 153.925C2.00949 156.596 -0.502819 164.104 0.0813713 171.276C0.69434 178.795 4.48438 186.605 11.4285 190.216C12.6774 190.866 13.9609 191.238 15.2416 191.476C15.0718 191.698 14.8818 191.905 14.7178 192.133C12.3264 195.484 10.8299 199.295 9.98096 203.271L9.93203 203.484C9.746 204.384 9.59432 205.29 9.47734 206.202C9.44281 206.467 9.37662 206.726 9.34497 206.991C9.3277 207.16 9.32482 207.345 9.30756 207.517C9.27014 207.897 9.25 208.274 9.2241 208.655C8.65718 215.947 9.78814 224.422 14.053 230.571C14.3169 230.965 14.5943 231.35 14.8847 231.726C14.9192 231.769 14.9451 231.818 14.9797 231.861C14.6792 234.028 14.489 236.209 14.4099 238.396C14.335 241.318 14.4674 244.441 15.7394 247.124C17.0258 249.833 19.9899 251.244 22.8878 250.314C25.8692 249.356 28.016 246.681 29.7139 244.194C31.1442 242.098 32.2809 239.801 33.2766 237.452C36.494 236.424 39.4121 234.504 41.4611 231.728C41.8899 232.27 42.3647 232.759 42.8223 233.269C42.6381 233.45 42.4424 233.623 42.3273 233.879C40.9757 236.915 40.1244 240.149 39.8063 243.457C39.5502 246.082 39.6279 248.993 40.6035 251.474C41.6769 254.209 43.6741 256.262 46.736 256.469C49.7376 256.674 52.4887 254.661 54.4946 252.646C56.9925 250.139 59.0012 247.119 60.8055 244.076C62.3912 244.505 63.9711 244.833 65.5453 245.046C65.5568 246.88 65.7035 248.817 65.9827 250.818C66.6647 256.789 68.2849 262.541 71.698 267.78C71.7785 267.901 71.8735 268.016 71.9541 268.14C75.8995 274.531 81.7098 279.117 89.4827 278.967C89.805 278.967 90.1158 279.013 90.441 278.996C90.7575 278.979 91.0396 278.913 91.3446 278.881C91.4482 278.869 91.5403 278.881 91.641 278.867C91.7619 278.852 91.8684 278.815 91.9864 278.797C96.3152 278.264 100.321 276.231 103.308 273.051L103.354 273.002C103.877 272.453 104.381 271.883 104.853 271.275C105.063 271.01 105.256 270.728 105.454 270.455C105.716 270.086 105.984 269.726 106.229 269.346C106.631 268.724 107.008 268.08 107.368 267.417L107.454 267.265C110.919 260.831 112.373 252.721 112.58 245.403C114.606 246.728 116.868 247.654 119.242 248.129C119.541 248.204 119.846 248.262 120.148 248.322L120.209 248.334C122.391 248.786 124.63 248.893 126.845 248.65C131.064 248.167 134.926 246.811 138.35 244.795C139.723 244.035 140.989 243.146 142.195 242.202L142.345 242.645C142.437 242.898 142.535 243.146 142.635 243.393C142.759 243.702 142.883 244.004 143.018 244.303C143.357 245.063 143.745 245.8 144.181 246.508C144.478 246.984 144.798 247.445 145.139 247.89C145.335 248.138 145.542 248.374 145.752 248.604C145.907 248.777 146.063 248.953 146.227 249.114C146.454 249.332 146.691 249.539 146.938 249.736C147.107 249.88 147.274 250.026 147.456 250.156C147.72 250.349 148.002 250.513 148.287 250.677C148.469 250.783 148.641 250.902 148.831 250.997C149.156 251.158 149.505 251.284 149.853 251.408C150.026 251.472 150.187 251.552 150.365 251.604C150.919 251.77 151.486 251.889 152.06 251.958C152.771 252.044 153.447 252.05 154.106 252.016C154.311 252.004 154.506 251.972 154.705 251.949C155.358 251.879 156.004 251.749 156.633 251.561C157.05 251.431 157.453 251.273 157.847 251.094C158.011 251.02 158.178 250.956 158.339 250.876C158.872 250.599 159.39 250.288 159.879 249.928C159.919 249.897 159.957 249.859 160 249.828C160.443 249.491 160.869 249.12 161.278 248.719C161.427 248.573 161.571 248.414 161.715 248.262C162.176 247.778 162.607 247.267 163.004 246.73C163.263 246.382 163.514 246.022 163.755 245.65C163.879 245.46 164.009 245.276 164.127 245.083C164.461 244.536 164.783 243.978 165.082 243.396C165.189 243.192 165.284 242.979 165.384 242.772C165.58 242.371 165.773 241.968 165.954 241.557C166.092 241.249 166.219 240.938 166.348 240.624C166.478 240.31 166.604 239.994 166.725 239.677C166.858 239.326 166.99 238.977 167.114 238.623C167.732 236.849 168.268 235.047 168.72 233.223C169.458 234.046 170.274 234.799 171.157 235.465C171.615 235.803 172.098 236.104 172.602 236.366C172.953 236.55 173.313 236.709 173.678 236.841C173.762 236.87 173.842 236.907 173.926 236.933C174.366 237.077 174.818 237.184 175.275 237.236C175.327 237.241 175.382 237.236 175.434 237.241C175.825 237.276 176.225 237.27 176.628 237.23C176.766 237.218 176.907 237.19 177.051 237.167C177.388 237.109 177.73 237.023 178.072 236.905C178.216 236.859 178.357 236.815 178.501 236.758C178.976 236.562 179.457 236.326 179.943 236.006C180.694 235.508 181.35 234.901 181.952 234.242C182.142 234.037 182.306 233.81 182.478 233.591C183.077 232.849 183.598 232.049 184.035 231.202C184.34 230.609 184.617 229.992 184.864 229.356C184.968 229.097 185.083 228.85 185.178 228.585C185.483 227.712 185.75 226.814 185.972 225.893C186.061 225.53 186.125 225.159 186.199 224.793C186.32 224.218 186.438 223.648 186.533 223.069C186.68 222.171 186.803 221.27 186.901 220.366C186.973 219.718 187.04 219.09 187.091 218.46C188.099 218.943 189.149 219.361 190.202 219.678L190.361 219.727C190.643 219.81 190.919 219.879 191.201 219.945L191.612 220.037C191.863 220.089 192.113 220.135 192.361 220.176C192.533 220.202 192.706 220.219 192.879 220.236C193.097 220.262 193.316 220.291 193.532 220.302C193.895 220.32 194.251 220.32 194.597 220.299C194.746 220.291 194.887 220.265 195.031 220.248C195.407 220.207 195.779 220.135 196.142 220.032C196.364 219.968 196.577 219.894 196.784 219.807C196.905 219.755 197.028 219.706 197.146 219.649C197.4 219.519 197.639 219.367 197.869 219.197C197.923 219.157 197.987 219.128 198.039 219.085C198.315 218.86 198.568 218.601 198.801 218.307C198.867 218.227 198.925 218.129 198.988 218.04C199.149 217.809 199.299 217.565 199.434 217.297C199.637 216.88 199.8 216.445 199.923 215.998C199.964 215.857 200.007 215.725 200.041 215.575C200.151 215.094 200.24 214.585 200.286 214.018C200.41 212.492 200.43 210.949 200.37 209.4C200.347 208.862 200.269 208.321 200.229 207.779C200.151 206.763 200.079 205.75 199.938 204.728C199.843 204.066 199.702 203.403 199.584 202.741C199.423 201.846 199.276 200.951 199.072 200.058C198.905 199.313 198.698 198.573 198.505 197.83C198.295 197.03 198.093 196.229 197.857 195.432C197.615 194.612 197.345 193.803 197.077 192.988C196.847 192.291 196.626 191.597 196.381 190.909C196.059 189.997 195.719 189.101 195.374 188.203C195.161 187.65 194.951 187.098 194.732 186.548C194.179 185.167 193.606 183.795 193.011 182.431C192.479 181.208 191.949 180.016 191.411 178.841L191.399 178.818C191.923 178.288 192.418 177.733 192.933 177.197C195.839 174.184 198.648 171.079 201.357 167.887C201.653 167.539 201.955 167.199 202.249 166.851C203.794 164.997 205.307 163.117 206.787 161.211L207.345 160.491C215.307 150.162 222.335 139.146 228.347 127.572L228.454 127.379C234.704 115.446 240.909 102.359 243.715 88.9609C244 87.6597 244.259 86.3584 244.469 85.0457L244.538 84.5793C244.587 84.2612 244.633 83.9397 244.676 83.6206C245.136 80.3215 245.439 76.2854 243.171 73.7491Z" fill="black"/>
</svg>
